# Blender v2.72 (sub 0) OBJ File: ''
# www.blender.org
mtllib truck.mtl
o tire3
v 0.788598 0.730566 -3.254834
v 0.788598 1.186339 -3.402924
v 0.788598 1.468024 -3.790628
v 0.788598 1.468024 -4.269859
v 0.788598 1.186339 -4.657568
v 0.788598 0.730565 -4.805659
v 0.788598 0.274792 -4.657568
v 0.788598 -0.006892 -4.269859
v 0.788598 -0.006892 -3.790628
v 0.788598 0.274792 -3.402924
v 1.238770 1.186339 -3.402924
v 1.238770 1.468024 -3.790628
v 1.238770 1.468024 -4.269859
v 1.238770 1.186339 -4.657568
v 1.238770 0.730565 -4.805659
v 1.238770 0.274792 -4.657568
v 1.238770 -0.006892 -4.269859
v 1.238770 -0.006892 -3.790628
v 1.238770 0.274792 -3.402924
v 1.238770 0.730566 -3.254834
v 1.276450 1.162008 -3.436413
v 1.276450 1.428655 -3.803418
v 1.276450 1.428655 -4.257068
v 1.276450 1.162007 -4.624076
v 1.276450 0.730565 -4.764263
v 1.276450 0.299123 -4.624076
v 1.276450 0.032477 -4.257068
v 1.276450 0.032477 -3.803418
v 1.276450 0.299123 -3.436413
v 1.276450 0.730566 -3.296227
v 0.745536 0.730566 -3.299878
v 0.745536 1.159861 -3.439368
v 0.745536 1.425181 -3.804546
v 0.745536 1.425181 -4.255941
v 0.745536 1.159861 -4.621121
v 0.745536 0.730565 -4.760611
v 0.745536 0.301270 -4.621121
v 0.745536 0.035950 -4.255941
v 0.745536 0.035950 -3.804546
v 0.745536 0.301270 -3.439368
v -0.788598 0.730566 -3.254834
v -0.788598 1.186339 -3.402924
v -0.788598 1.468024 -3.790628
v -0.788598 1.468024 -4.269859
v -0.788598 1.186339 -4.657568
v -0.788598 0.730565 -4.805659
v -0.788598 0.274792 -4.657568
v -0.788598 -0.006892 -4.269859
v -0.788598 -0.006892 -3.790628
v -0.788598 0.274792 -3.402924
v -1.238770 1.186339 -3.402924
v -1.238770 1.468024 -3.790628
v -1.238770 1.468024 -4.269859
v -1.238770 1.186339 -4.657568
v -1.238770 0.730565 -4.805659
v -1.238770 0.274792 -4.657568
v -1.238770 -0.006892 -4.269859
v -1.238770 -0.006892 -3.790628
v -1.238770 0.274792 -3.402924
v -1.238770 0.730566 -3.254834
v -1.276450 1.162008 -3.436413
v -1.276450 1.428655 -3.803418
v -1.276450 1.428655 -4.257068
v -1.276450 1.162007 -4.624076
v -1.276450 0.730565 -4.764263
v -1.276450 0.299123 -4.624076
v -1.276450 0.032477 -4.257068
v -1.276450 0.032477 -3.803418
v -1.276450 0.299123 -3.436413
v -1.276450 0.730566 -3.296227
v -0.745536 0.730566 -3.299878
v -0.745536 1.159861 -3.439368
v -0.745536 1.425181 -3.804546
v -0.745536 1.425181 -4.255941
v -0.745536 1.159861 -4.621121
v -0.745536 0.730565 -4.760611
v -0.745536 0.301270 -4.621121
v -0.745536 0.035950 -4.255941
v -0.745536 0.035950 -3.804546
v -0.745536 0.301270 -3.439368
vt 0.414033 0.657219
vt 0.478220 0.745566
vt 0.431774 0.711820
vt 0.535632 0.745566
vt 0.582079 0.711820
vt 0.599820 0.657219
vt 0.582079 0.602617
vt 0.535632 0.568871
vt 0.478220 0.568871
vt 0.431774 0.602617
vt 0.414495 0.657219
vt 0.432148 0.711549
vt 0.478363 0.745127
vt 0.535489 0.745127
vt 0.581705 0.711549
vt 0.599358 0.657219
vt 0.581705 0.602889
vt 0.535489 0.569311
vt 0.478363 0.569311
vt 0.432148 0.602889
vt 0.639483 0.626151
vt 0.696454 0.675273
vt 0.639483 0.675272
vt 0.696454 0.626151
vt 0.639356 0.626603
vt 0.696328 0.675450
vt 0.639356 0.675400
vt 0.696328 0.626603
vt 0.696202 0.675330
vt 0.639609 0.675203
vt 0.696202 0.626654
vt 0.639356 0.626281
vt 0.696328 0.675318
vt 0.639483 0.675192
vt 0.696328 0.626660
vt 0.639483 0.626269
vt 0.696455 0.626269
vt 0.639408 0.626357
vt 0.696202 0.675445
vt 0.639356 0.675318
vt 0.696081 0.626610
vt 0.639173 0.626336
vt 0.696271 0.675523
vt 0.696018 0.626463
vt 0.639483 0.626407
vt 0.639356 0.626209
vt 0.696328 0.626209
vt 0.696454 0.675149
vt 0.639356 0.675149
vt 0.639103 0.626682
vt 0.696202 0.626404
vt 0.427535 0.714900
vt 0.408794 0.657219
vt 0.476602 0.750549
vt 0.537251 0.750549
vt 0.586317 0.714900
vt 0.605059 0.657219
vt 0.586317 0.599538
vt 0.537251 0.563889
vt 0.476602 0.563889
vt 0.427535 0.599538
usemtl mat1
s 1
f 30/1 22/2 21/3
f 30/1 23/4 22/2
f 30/1 24/5 23/4
f 30/1 25/6 24/5
f 30/1 26/7 25/6
f 30/1 27/8 26/7
f 30/1 28/9 27/8
f 30/1 29/10 28/9
f 31/11 32/12 33/13
f 31/11 33/13 34/14
f 31/11 34/14 35/15
f 31/11 35/15 36/16
f 31/11 36/16 37/17
f 31/11 37/17 38/18
f 31/11 38/18 39/19
f 31/11 39/19 40/20
f 62/2 70/1 61/3
f 63/4 70/1 62/2
f 64/5 70/1 63/4
f 65/6 70/1 64/5
f 66/7 70/1 65/6
f 67/8 70/1 66/7
f 68/9 70/1 67/8
f 69/10 70/1 68/9
f 72/12 71/11 73/13
f 73/13 71/11 74/14
f 74/14 71/11 75/15
f 75/15 71/11 76/16
f 76/16 71/11 77/17
f 77/17 71/11 78/18
f 78/18 71/11 79/19
f 79/19 71/11 80/20
f 1/21 11/22 2/23
f 1/21 20/24 11/22
f 2/25 12/26 3/27
f 2/25 11/28 12/26
f 3/25 13/29 4/30
f 3/25 12/31 13/29
f 4/32 14/33 5/34
f 4/32 13/35 14/33
f 5/36 15/26 6/27
f 5/36 14/37 15/26
f 6/38 16/39 7/40
f 6/38 15/41 16/39
f 7/42 17/43 8/40
f 7/42 16/44 17/43
f 8/45 18/26 9/27
f 8/45 17/35 18/26
f 9/46 19/33 10/40
f 9/46 18/47 19/33
f 20/48 1/49 10/50
f 10/50 19/51 20/48
f 30/1 11/52 20/53
f 30/1 21/3 11/52
f 22/2 11/52 21/3
f 22/2 12/54 11/52
f 23/4 12/54 22/2
f 23/4 13/55 12/54
f 24/5 13/55 23/4
f 24/5 14/56 13/55
f 25/6 14/56 24/5
f 25/6 15/57 14/56
f 25/6 16/58 15/57
f 25/6 26/7 16/58
f 27/8 16/58 26/7
f 27/8 17/59 16/58
f 28/9 17/59 27/8
f 28/9 18/60 17/59
f 29/10 18/60 28/9
f 29/10 19/61 18/60
f 30/1 19/61 29/10
f 30/1 20/53 19/61
f 32/12 3/54 33/13
f 32/12 2/52 3/54
f 31/11 2/52 32/12
f 31/11 1/53 2/52
f 33/13 4/55 34/14
f 33/13 3/54 4/55
f 35/15 4/55 5/56
f 35/15 34/14 4/55
f 35/15 6/57 36/16
f 35/15 5/56 6/57
f 37/17 6/57 7/58
f 37/17 36/16 6/57
f 37/17 8/59 38/18
f 37/17 7/58 8/59
f 38/18 9/60 39/19
f 38/18 8/59 9/60
f 40/20 1/53 31/11
f 10/61 1/53 40/20
f 39/19 10/61 40/20
f 39/19 9/60 10/61
f 60/24 42/23 51/22
f 60/24 41/21 42/23
f 51/28 43/27 52/26
f 51/28 42/25 43/27
f 52/31 44/30 53/29
f 52/31 43/25 44/30
f 53/35 45/34 54/33
f 53/35 44/32 45/34
f 54/37 46/27 55/26
f 54/37 45/36 46/27
f 55/41 47/40 56/39
f 55/41 46/38 47/40
f 56/44 48/40 57/43
f 56/44 47/42 48/40
f 57/35 49/27 58/26
f 57/35 48/45 49/27
f 58/47 50/40 59/33
f 58/47 49/46 50/40
f 59/51 41/49 60/48
f 59/51 50/50 41/49
f 51/52 70/1 60/53
f 51/52 61/3 70/1
f 52/54 61/3 51/52
f 52/54 62/2 61/3
f 53/55 62/2 52/54
f 53/55 63/4 62/2
f 53/55 64/5 63/4
f 53/55 54/56 64/5
f 55/57 64/5 54/56
f 55/57 65/6 64/5
f 56/58 65/6 55/57
f 56/58 66/7 65/6
f 57/59 66/7 56/58
f 57/59 67/8 66/7
f 58/60 67/8 57/59
f 58/60 68/9 67/8
f 58/60 69/10 68/9
f 58/60 59/61 69/10
f 59/61 70/1 69/10
f 59/61 60/53 70/1
f 43/54 72/12 73/13
f 43/54 42/52 72/12
f 42/52 71/11 72/12
f 42/52 41/53 71/11
f 44/55 73/13 74/14
f 44/55 43/54 73/13
f 44/55 75/15 45/56
f 44/55 74/14 75/15
f 45/56 76/16 46/57
f 45/56 75/15 76/16
f 46/57 77/17 47/58
f 46/57 76/16 77/17
f 48/59 77/17 78/18
f 48/59 47/58 77/17
f 49/60 78/18 79/19
f 49/60 48/59 78/18
f 41/53 80/20 71/11
f 41/53 50/61 80/20
f 49/60 80/20 50/61
f 49/60 79/19 80/20
o tire2
v 0.788598 0.730566 -0.583911
v 0.788598 1.186339 -0.732001
v 0.788598 1.468024 -1.119706
v 0.788598 1.468024 -1.598935
v 0.788598 1.186339 -1.986640
v 0.788598 0.730566 -2.134729
v 0.788598 0.274792 -1.986640
v 0.788598 -0.006892 -1.598935
v 0.788598 -0.006892 -1.119706
v 0.788598 0.274792 -0.732001
v 1.238770 1.186339 -0.732001
v 1.238770 1.468024 -1.119706
v 1.238770 1.468024 -1.598935
v 1.238770 1.186339 -1.986640
v 1.238770 0.730566 -2.134729
v 1.238770 0.274792 -1.986640
v 1.238770 -0.006892 -1.598935
v 1.238770 -0.006892 -1.119706
v 1.238770 0.274792 -0.732001
v 1.238770 0.730566 -0.583911
v 1.276450 1.162008 -0.765491
v 1.276450 1.428655 -1.132498
v 1.276450 1.428655 -1.586144
v 1.276450 1.162008 -1.953150
v 1.276450 0.730566 -2.093334
v 1.276450 0.299124 -1.953150
v 1.276450 0.032477 -1.586143
v 1.276450 0.032477 -1.132498
v 1.276450 0.299124 -0.765491
v 1.276450 0.730566 -0.625306
v 0.745536 0.730566 -0.628958
v 0.745536 1.159861 -0.768446
v 0.745536 1.425181 -1.133626
v 0.745536 1.425181 -1.585014
v 0.745536 1.159861 -1.950196
v 0.745536 0.730566 -2.089683
v 0.745536 0.301270 -1.950195
v 0.745536 0.035950 -1.585014
v 0.745536 0.035950 -1.133626
v 0.745536 0.301270 -0.768446
v -0.788598 0.730566 -0.583911
v -0.788598 1.186339 -0.732001
v -0.788598 1.468024 -1.119706
v -0.788598 1.468024 -1.598935
v -0.788598 1.186339 -1.986640
v -0.788598 0.730566 -2.134729
v -0.788598 0.274792 -1.986640
v -0.788598 -0.006892 -1.598935
v -0.788598 -0.006892 -1.119706
v -0.788598 0.274792 -0.732001
v -1.238770 1.186339 -0.732001
v -1.238770 1.468024 -1.119706
v -1.238770 1.468024 -1.598935
v -1.238770 1.186339 -1.986640
v -1.238770 0.730566 -2.134729
v -1.238770 0.274792 -1.986640
v -1.238770 -0.006892 -1.598935
v -1.238770 -0.006892 -1.119706
v -1.238770 0.274792 -0.732001
v -1.238770 0.730566 -0.583911
v -1.276450 1.162008 -0.765491
v -1.276450 1.428655 -1.132498
v -1.276450 1.428655 -1.586144
v -1.276450 1.162008 -1.953150
v -1.276450 0.730566 -2.093334
v -1.276450 0.299124 -1.953150
v -1.276450 0.032477 -1.586143
v -1.276450 0.032477 -1.132498
v -1.276450 0.299124 -0.765491
v -1.276450 0.730566 -0.625306
v -0.745536 0.730566 -0.628958
v -0.745536 1.159861 -0.768446
v -0.745536 1.425181 -1.133626
v -0.745536 1.425181 -1.585014
v -0.745536 1.159861 -1.950196
v -0.745536 0.730566 -2.089683
v -0.745536 0.301270 -1.950195
v -0.745536 0.035950 -1.585014
v -0.745536 0.035950 -1.133626
v -0.745536 0.301270 -0.768446
vt 0.414033 0.657219
vt 0.478220 0.745566
vt 0.431774 0.711820
vt 0.535632 0.745566
vt 0.582079 0.711820
vt 0.599820 0.657219
vt 0.582079 0.602617
vt 0.535632 0.568871
vt 0.478220 0.568871
vt 0.431774 0.602617
vt 0.414495 0.657219
vt 0.432148 0.711549
vt 0.478363 0.745127
vt 0.535489 0.745127
vt 0.581705 0.711549
vt 0.599358 0.657219
vt 0.581705 0.602889
vt 0.535489 0.569311
vt 0.478363 0.569311
vt 0.432148 0.602889
vt 0.639483 0.626151
vt 0.696454 0.675273
vt 0.639483 0.675272
vt 0.696454 0.626151
vt 0.639356 0.626603
vt 0.696328 0.675450
vt 0.639356 0.675400
vt 0.696328 0.626603
vt 0.696202 0.675330
vt 0.639609 0.675203
vt 0.696202 0.626654
vt 0.639356 0.626281
vt 0.696328 0.675318
vt 0.639483 0.675192
vt 0.696328 0.626660
vt 0.639483 0.626269
vt 0.696455 0.626269
vt 0.639408 0.626357
vt 0.696202 0.675445
vt 0.639356 0.675318
vt 0.696081 0.626610
vt 0.639173 0.626336
vt 0.696271 0.675523
vt 0.696018 0.626463
vt 0.639483 0.626407
vt 0.639356 0.626209
vt 0.696328 0.626209
vt 0.696454 0.675149
vt 0.639356 0.675149
vt 0.639103 0.626682
vt 0.696202 0.626404
vt 0.427535 0.714900
vt 0.408794 0.657219
vt 0.476602 0.750549
vt 0.537251 0.750549
vt 0.586317 0.714900
vt 0.605059 0.657219
vt 0.586317 0.599538
vt 0.537251 0.563889
vt 0.476602 0.563889
vt 0.427535 0.599538
usemtl mat1
s 1
f 110/62 102/63 101/64
f 110/62 103/65 102/63
f 110/62 104/66 103/65
f 110/62 105/67 104/66
f 110/62 106/68 105/67
f 110/62 107/69 106/68
f 110/62 108/70 107/69
f 110/62 109/71 108/70
f 111/72 112/73 113/74
f 111/72 113/74 114/75
f 111/72 114/75 115/76
f 111/72 115/76 116/77
f 111/72 116/77 117/78
f 111/72 117/78 118/79
f 111/72 118/79 119/80
f 111/72 119/80 120/81
f 142/63 150/62 141/64
f 143/65 150/62 142/63
f 144/66 150/62 143/65
f 145/67 150/62 144/66
f 146/68 150/62 145/67
f 147/69 150/62 146/68
f 148/70 150/62 147/69
f 149/71 150/62 148/70
f 152/73 151/72 153/74
f 153/74 151/72 154/75
f 154/75 151/72 155/76
f 155/76 151/72 156/77
f 156/77 151/72 157/78
f 157/78 151/72 158/79
f 158/79 151/72 159/80
f 159/80 151/72 160/81
f 81/82 91/83 82/84
f 81/82 100/85 91/83
f 82/86 92/87 83/88
f 82/86 91/89 92/87
f 83/86 93/90 84/91
f 83/86 92/92 93/90
f 84/93 94/94 85/95
f 84/93 93/96 94/94
f 85/97 95/87 86/88
f 85/97 94/98 95/87
f 86/99 96/100 87/101
f 86/99 95/102 96/100
f 87/103 97/104 88/101
f 87/103 96/105 97/104
f 88/106 98/87 89/88
f 88/106 97/96 98/87
f 89/107 99/94 90/101
f 89/107 98/108 99/94
f 100/109 81/110 90/111
f 90/111 99/112 100/109
f 110/62 91/113 100/114
f 110/62 101/64 91/113
f 102/63 91/113 101/64
f 102/63 92/115 91/113
f 103/65 92/115 102/63
f 103/65 93/116 92/115
f 103/65 94/117 93/116
f 103/65 104/66 94/117
f 104/66 95/118 94/117
f 104/66 105/67 95/118
f 105/67 96/119 95/118
f 105/67 106/68 96/119
f 107/69 96/119 106/68
f 107/69 97/120 96/119
f 108/70 97/120 107/69
f 108/70 98/121 97/120
f 108/70 99/122 98/121
f 108/70 109/71 99/122
f 110/62 99/122 109/71
f 110/62 100/114 99/122
f 113/74 82/113 83/115
f 113/74 112/73 82/113
f 111/72 82/113 112/73
f 111/72 81/114 82/113
f 114/75 83/115 84/116
f 114/75 113/74 83/115
f 114/75 85/117 115/76
f 114/75 84/116 85/117
f 115/76 86/118 116/77
f 115/76 85/117 86/118
f 116/77 87/119 117/78
f 116/77 86/118 87/119
f 117/78 88/120 118/79
f 117/78 87/119 88/120
f 119/80 88/120 89/121
f 119/80 118/79 88/120
f 90/122 81/114 111/72
f 111/72 120/81 90/122
f 120/81 89/121 90/122
f 120/81 119/80 89/121
f 140/85 122/84 131/83
f 140/85 121/82 122/84
f 131/89 123/88 132/87
f 131/89 122/86 123/88
f 132/92 124/91 133/90
f 132/92 123/86 124/91
f 133/96 125/95 134/94
f 133/96 124/93 125/95
f 134/98 126/88 135/87
f 134/98 125/97 126/88
f 135/102 127/101 136/100
f 135/102 126/99 127/101
f 136/105 128/101 137/104
f 136/105 127/103 128/101
f 137/96 129/88 138/87
f 137/96 128/106 129/88
f 138/108 130/101 139/94
f 138/108 129/107 130/101
f 139/112 121/110 140/109
f 139/112 130/111 121/110
f 131/113 150/62 140/114
f 131/113 141/64 150/62
f 131/113 142/63 141/64
f 131/113 132/115 142/63
f 133/116 142/63 132/115
f 133/116 143/65 142/63
f 134/117 143/65 133/116
f 134/117 144/66 143/65
f 135/118 144/66 134/117
f 135/118 145/67 144/66
f 136/119 145/67 135/118
f 136/119 146/68 145/67
f 136/119 147/69 146/68
f 136/119 137/120 147/69
f 138/121 147/69 137/120
f 138/121 148/70 147/69
f 139/122 148/70 138/121
f 139/122 149/71 148/70
f 139/122 150/62 149/71
f 139/122 140/114 150/62
f 122/113 153/74 123/115
f 122/113 152/73 153/74
f 122/113 151/72 152/73
f 122/113 121/114 151/72
f 123/115 154/75 124/116
f 123/115 153/74 154/75
f 125/117 154/75 155/76
f 125/117 124/116 154/75
f 126/118 155/76 156/77
f 126/118 125/117 155/76
f 127/119 156/77 157/78
f 127/119 126/118 156/77
f 127/119 158/79 128/120
f 127/119 157/78 158/79
f 128/120 159/80 129/121
f 128/120 158/79 159/80
f 130/122 151/72 121/114
f 130/122 160/81 151/72
f 129/121 160/81 130/122
f 129/121 159/80 160/81
o tire1
v 0.788598 0.730566 2.050985
v 0.788598 1.186339 1.902892
v 0.788598 1.468024 1.515191
v 0.788598 1.468024 1.035961
v 0.788598 1.186339 0.648256
v 0.788598 0.730566 0.500165
v 0.788598 0.274792 0.648257
v 0.788598 -0.006892 1.035961
v 0.788598 -0.006892 1.515191
v 0.788598 0.274792 1.902893
v 1.238770 1.186339 1.902892
v 1.238770 1.468024 1.515191
v 1.238770 1.468024 1.035961
v 1.238770 1.186339 0.648256
v 1.238770 0.730566 0.500165
v 1.238770 0.274792 0.648257
v 1.238770 -0.006892 1.035961
v 1.238770 -0.006892 1.515191
v 1.238770 0.274792 1.902893
v 1.238770 0.730566 2.050985
v 1.276450 1.162008 1.869403
v 1.276450 1.428655 1.502399
v 1.276450 1.428655 1.048752
v 1.276450 1.162008 0.681746
v 1.276450 0.730566 0.541561
v 1.276450 0.299124 0.681746
v 1.276450 0.032478 1.048752
v 1.276450 0.032478 1.502399
v 1.276450 0.299124 1.869403
v 1.276450 0.730566 2.009591
v 0.745536 0.730566 2.005936
v 0.745536 1.159861 1.866450
v 0.745536 1.425182 1.501271
v 0.745536 1.425182 1.049882
v 0.745536 1.159861 0.684700
v 0.745536 0.730566 0.545214
v 0.745536 0.301270 0.684700
v 0.745536 0.035951 1.049882
v 0.745536 0.035951 1.501271
v 0.745536 0.301270 1.866450
v -0.788598 0.730566 2.050985
v -0.788598 1.186339 1.902892
v -0.788598 1.468024 1.515191
v -0.788598 1.468024 1.035961
v -0.788598 1.186339 0.648256
v -0.788598 0.730566 0.500165
v -0.788598 0.274792 0.648257
v -0.788598 -0.006892 1.035961
v -0.788598 -0.006892 1.515191
v -0.788598 0.274792 1.902893
v -1.238770 1.186339 1.902892
v -1.238770 1.468024 1.515191
v -1.238770 1.468024 1.035961
v -1.238770 1.186339 0.648256
v -1.238770 0.730566 0.500165
v -1.238770 0.274792 0.648257
v -1.238770 -0.006892 1.035961
v -1.238770 -0.006892 1.515191
v -1.238770 0.274792 1.902893
v -1.238770 0.730566 2.050985
v -1.276450 1.162008 1.869403
v -1.276450 1.428655 1.502399
v -1.276450 1.428655 1.048752
v -1.276450 1.162008 0.681746
v -1.276450 0.730566 0.541561
v -1.276450 0.299124 0.681746
v -1.276450 0.032478 1.048752
v -1.276450 0.032478 1.502399
v -1.276450 0.299124 1.869403
v -1.276450 0.730566 2.009591
v -0.745536 0.730566 2.005936
v -0.745536 1.159861 1.866450
v -0.745536 1.425182 1.501271
v -0.745536 1.425182 1.049882
v -0.745536 1.159861 0.684700
v -0.745536 0.730566 0.545214
v -0.745536 0.301270 0.684700
v -0.745536 0.035951 1.049882
v -0.745536 0.035951 1.501271
v -0.745536 0.301270 1.866450
vt 0.414033 0.657219
vt 0.478220 0.745566
vt 0.431774 0.711820
vt 0.535632 0.745566
vt 0.582079 0.711820
vt 0.599820 0.657219
vt 0.582079 0.602617
vt 0.535632 0.568871
vt 0.478220 0.568871
vt 0.431774 0.602617
vt 0.414495 0.657219
vt 0.432148 0.711549
vt 0.478363 0.745127
vt 0.535489 0.745127
vt 0.581705 0.711549
vt 0.599358 0.657219
vt 0.581705 0.602889
vt 0.535489 0.569311
vt 0.478363 0.569311
vt 0.432148 0.602889
vt 0.639483 0.626151
vt 0.696454 0.675273
vt 0.639483 0.675272
vt 0.696454 0.626151
vt 0.639356 0.626603
vt 0.696328 0.675450
vt 0.639356 0.675400
vt 0.696328 0.626603
vt 0.696202 0.675330
vt 0.639609 0.675203
vt 0.696202 0.626654
vt 0.639356 0.626281
vt 0.696328 0.675318
vt 0.639483 0.675192
vt 0.696328 0.626660
vt 0.639483 0.626269
vt 0.696455 0.626269
vt 0.639408 0.626357
vt 0.696202 0.675445
vt 0.639356 0.675318
vt 0.696081 0.626610
vt 0.639173 0.626336
vt 0.696271 0.675523
vt 0.696018 0.626463
vt 0.639483 0.626407
vt 0.639356 0.626209
vt 0.696328 0.626209
vt 0.696454 0.675149
vt 0.639356 0.675149
vt 0.639103 0.626682
vt 0.696202 0.626404
vt 0.408794 0.657219
vt 0.427535 0.714900
vt 0.476602 0.750549
vt 0.537251 0.750549
vt 0.586317 0.714900
vt 0.605059 0.657219
vt 0.586317 0.599538
vt 0.537251 0.563889
vt 0.476602 0.563889
vt 0.427535 0.599538
usemtl mat1
s 1
f 190/123 182/124 181/125
f 190/123 183/126 182/124
f 190/123 184/127 183/126
f 190/123 185/128 184/127
f 190/123 186/129 185/128
f 190/123 187/130 186/129
f 190/123 188/131 187/130
f 190/123 189/132 188/131
f 191/133 192/134 193/135
f 191/133 193/135 194/136
f 191/133 194/136 195/137
f 191/133 195/137 196/138
f 191/133 196/138 197/139
f 191/133 197/139 198/140
f 191/133 198/140 199/141
f 191/133 199/141 200/142
f 222/124 230/123 221/125
f 223/126 230/123 222/124
f 224/127 230/123 223/126
f 225/128 230/123 224/127
f 226/129 230/123 225/128
f 227/130 230/123 226/129
f 228/131 230/123 227/130
f 229/132 230/123 228/131
f 232/134 231/133 233/135
f 233/135 231/133 234/136
f 234/136 231/133 235/137
f 235/137 231/133 236/138
f 236/138 231/133 237/139
f 237/139 231/133 238/140
f 238/140 231/133 239/141
f 239/141 231/133 240/142
f 161/143 171/144 162/145
f 161/143 180/146 171/144
f 162/147 172/148 163/149
f 162/147 171/150 172/148
f 163/147 173/151 164/152
f 163/147 172/153 173/151
f 164/154 174/155 165/156
f 164/154 173/157 174/155
f 165/158 175/148 166/149
f 165/158 174/159 175/148
f 166/160 176/161 167/162
f 166/160 175/163 176/161
f 167/164 177/165 168/162
f 167/164 176/166 177/165
f 168/167 178/148 169/149
f 168/167 177/157 178/148
f 169/168 179/155 170/162
f 169/168 178/169 179/155
f 180/170 161/171 170/172
f 170/172 179/173 180/170
f 181/125 180/174 190/123
f 181/125 171/175 180/174
f 182/124 171/175 181/125
f 182/124 172/176 171/175
f 183/126 172/176 182/124
f 183/126 173/177 172/176
f 183/126 174/178 173/177
f 183/126 184/127 174/178
f 185/128 174/178 184/127
f 185/128 175/179 174/178
f 185/128 176/180 175/179
f 185/128 186/129 176/180
f 187/130 176/180 186/129
f 187/130 177/181 176/180
f 188/131 177/181 187/130
f 188/131 178/182 177/181
f 189/132 178/182 188/131
f 189/132 179/183 178/182
f 189/132 180/174 179/183
f 189/132 190/123 180/174
f 192/134 163/176 193/135
f 192/134 162/175 163/176
f 191/133 162/175 192/134
f 191/133 161/174 162/175
f 194/136 163/176 164/177
f 194/136 193/135 163/176
f 194/136 165/178 195/137
f 194/136 164/177 165/178
f 195/137 166/179 196/138
f 195/137 165/178 166/179
f 196/138 167/180 197/139
f 196/138 166/179 167/180
f 197/139 168/181 198/140
f 197/139 167/180 168/181
f 198/140 169/182 199/141
f 198/140 168/181 169/182
f 200/142 161/174 191/133
f 170/183 161/174 200/142
f 199/141 170/183 200/142
f 199/141 169/182 170/183
f 220/146 202/145 211/144
f 220/146 201/143 202/145
f 211/150 203/149 212/148
f 211/150 202/147 203/149
f 212/153 204/152 213/151
f 212/153 203/147 204/152
f 213/157 205/156 214/155
f 213/157 204/154 205/156
f 214/159 206/149 215/148
f 214/159 205/158 206/149
f 215/163 207/162 216/161
f 215/163 206/160 207/162
f 216/166 208/162 217/165
f 216/166 207/164 208/162
f 217/157 209/149 218/148
f 217/157 208/167 209/149
f 218/169 210/162 219/155
f 218/169 209/168 210/162
f 219/173 201/171 220/170
f 219/173 210/172 201/171
f 220/174 221/125 230/123
f 220/174 211/175 221/125
f 211/175 222/124 221/125
f 211/175 212/176 222/124
f 213/177 222/124 212/176
f 213/177 223/126 222/124
f 214/178 223/126 213/177
f 214/178 224/127 223/126
f 215/179 224/127 214/178
f 215/179 225/128 224/127
f 216/180 225/128 215/179
f 216/180 226/129 225/128
f 216/180 227/130 226/129
f 216/180 217/181 227/130
f 218/182 227/130 217/181
f 218/182 228/131 227/130
f 218/182 229/132 228/131
f 218/182 219/183 229/132
f 220/174 229/132 219/183
f 220/174 230/123 229/132
f 203/176 232/134 233/135
f 203/176 202/175 232/134
f 202/175 231/133 232/134
f 202/175 201/174 231/133
f 203/176 234/136 204/177
f 203/176 233/135 234/136
f 205/178 234/136 235/137
f 205/178 204/177 234/136
f 205/178 236/138 206/179
f 205/178 235/137 236/138
f 207/180 236/138 237/139
f 207/180 206/179 236/138
f 207/180 238/140 208/181
f 207/180 237/139 238/140
f 209/182 238/140 239/141
f 209/182 208/181 238/140
f 201/174 240/142 231/133
f 201/174 210/183 240/142
f 209/182 240/142 210/183
f 209/182 239/141 240/142
o body
v 1.275772 2.090366 1.828773
v 1.275772 2.381698 0.946030
v 1.275772 2.431301 0.808494
v 1.275772 2.644332 0.600340
v 1.275772 2.894293 0.426790
v 1.275772 2.991709 0.399730
v 1.275772 2.982216 -4.591025
v 1.275772 2.862037 -4.638858
v 1.275772 1.581828 -4.795351
v 1.275772 1.508655 -4.564440
v 1.275772 1.672655 -4.325645
v 1.275774 1.653387 -3.450237
v 1.275772 0.952391 -3.223815
v 1.275772 0.863071 -2.260677
v 1.275774 1.642083 -2.001447
v 1.275772 1.647933 -0.748583
v 1.275774 1.464740 -0.730108
v 1.275774 1.457932 0.706553
v 1.275772 1.583629 0.939977
v 1.275772 1.564875 1.504285
v 1.275772 1.507108 1.764362
v 1.275774 1.367141 1.960299
v 1.275772 1.072740 2.147014
v 0.542129 1.638815 -1.952430
v 0.535415 1.365585 -2.036323
v 0.535415 0.684802 -2.261075
v 0.535415 0.749709 -3.160960
v 0.542129 1.639755 -3.458878
v 0.542129 1.641039 -4.236638
v 0.535415 1.404009 -4.570224
v 0.535415 1.342721 -4.820121
v 0.535415 1.101596 -4.832227
v 0.535415 1.075109 -4.527936
v 0.535415 1.439992 -4.222853
v 0.535415 1.425133 -3.387037
v 0.542129 1.645888 -0.747757
v 0.535415 0.628434 -0.349351
v 0.535415 0.653710 0.245074
v 0.535415 1.128759 0.486014
v 0.542129 1.543173 0.950094
v 0.535415 1.521010 1.493820
v 0.535415 1.459425 1.745581
v 0.535415 1.321777 1.945694
v 0.535415 1.018272 2.139174
v 0.535415 1.343796 2.718977
v 1.275772 1.394600 2.562984
v 1.275772 1.065278 2.494730
v 0.535824 1.997427 2.745319
v 1.275772 1.781564 2.498067
v 0.715439 1.726295 2.627571
v 0.801411 1.009856 2.598880
v 0.370404 0.628121 1.804875
v 0.535415 1.359629 -0.678620
v 1.275772 2.025755 -4.737949
v 0.503393 0.892615 1.658332
v 0.370404 0.689533 -4.164018
v 1.276015 1.290155 0.496041
v 1.276015 1.207176 0.452345
v 1.276015 1.217664 -0.620870
v 1.276015 1.298184 -0.657133
v 1.276015 0.930178 0.384852
v 1.276015 0.794668 0.315824
v 1.276015 0.822264 -0.437592
v 1.276015 0.942580 -0.492816
v 0.906551 1.010349 0.425296
v 0.906551 1.020397 -0.527585
v 0.906551 0.930178 0.384852
v 0.906551 0.942580 -0.492816
v 0.896834 1.289185 0.503682
v 0.896834 1.448227 0.575491
v 0.896834 1.298159 -0.657476
v 0.896834 1.459857 -0.711269
v 0.535415 1.418026 0.773998
v 0.535415 1.377629 0.588945
v 0.597823 2.025574 -4.738050
v -1.275772 2.090366 1.828773
v -1.275772 2.381698 0.946030
v -1.275772 2.431301 0.808494
v -1.275772 2.644332 0.600340
v -1.275772 2.894293 0.426790
v -1.275772 2.991709 0.399730
v -1.275772 2.982216 -4.591025
v -1.275772 2.862037 -4.638858
v -1.275772 1.581828 -4.795351
v -1.275772 1.508655 -4.564440
v -1.275772 1.672655 -4.325645
v -1.275774 1.653387 -3.450237
v -1.275772 0.952391 -3.223815
v -1.275772 0.863071 -2.260677
v -1.275774 1.642083 -2.001447
v -1.275772 1.647933 -0.748583
v -1.275774 1.464740 -0.730108
v -1.275774 1.457932 0.706553
v -1.275772 1.583629 0.939977
v -1.275772 1.564875 1.504285
v -1.275772 1.507108 1.764362
v -1.275774 1.367141 1.960299
v -1.275772 1.072740 2.147014
v -0.542129 1.638815 -1.952430
v -0.541961 1.365585 -2.036323
v -0.541961 0.684802 -2.261075
v -0.541961 0.749709 -3.160960
v -0.542129 1.639755 -3.458878
v -0.542129 1.641039 -4.236638
v -0.542129 1.404009 -4.570224
v -0.541961 1.342721 -4.820121
v -0.541961 1.101596 -4.832227
v -0.541961 1.075109 -4.527936
v -0.542129 1.439992 -4.222853
v -0.542129 1.425133 -3.387037
v -0.542129 1.645888 -0.747757
v -0.541961 0.628434 -0.349351
v -0.541961 0.653710 0.245074
v -0.541961 1.128759 0.486014
v -0.542129 1.543173 0.950094
v -0.542129 1.521010 1.493820
v -0.542129 1.459425 1.745581
v -0.541961 1.321777 1.945694
v -0.541961 1.018272 2.139174
v -0.541961 1.343796 2.718977
v -1.275772 1.394600 2.562984
v -1.275772 1.065278 2.494730
v -0.541961 1.009043 2.653310
v -0.543495 1.997427 2.745319
v -1.275772 1.781564 2.498067
v -0.715439 1.726295 2.627571
v -0.801411 1.009856 2.598880
v -0.370404 0.628121 1.804875
v -0.541961 1.359629 -0.678620
v -1.275772 2.025755 -4.737949
v -0.495394 0.862876 2.517567
v -0.503393 0.892615 1.658332
v -0.370404 0.689533 -4.164018
v -1.276015 1.290155 0.496041
v -1.276015 1.207176 0.452345
v -1.276015 1.217664 -0.620870
v -1.276015 1.298184 -0.657133
v -1.276015 0.930178 0.384852
v -1.276015 0.794668 0.315824
v -1.276015 0.822264 -0.437592
v -1.276015 0.942580 -0.492816
v -0.906551 1.010349 0.425296
v -0.906551 1.020397 -0.527585
v -0.906551 0.930178 0.384852
v -0.906551 0.942580 -0.492816
v -0.896834 1.289185 0.503682
v -0.896834 1.448227 0.575491
v -0.896834 1.298159 -0.657476
v -0.896834 1.459857 -0.711269
v -0.542129 1.418026 0.773998
v -0.541961 1.377629 0.588945
v -0.597823 2.025574 -4.738050
v -0.599947 3.024505 -4.548722
v 0.599947 3.024505 -4.548722
v 0.535415 1.009043 2.653310
v 0.495394 0.862876 2.517567
v 0.599947 2.935010 -4.596558
v -0.599947 2.935010 -4.596558
v -0.503393 0.954027 -4.310560
v 0.503393 0.954027 -4.310560
v -0.503393 0.923320 -1.326112
v 0.503393 0.923320 -1.326112
v 0.623740 2.431192 0.808489
v 1.194268 2.431286 0.808493
v -0.623740 2.431192 0.808489
v -1.194268 2.431286 0.808493
v -1.194268 2.455135 0.783700
v 1.194268 2.455135 0.783700
v 1.194267 2.959219 0.408266
v -1.194267 2.959219 0.408266
v -0.602921 2.961207 0.407386
v 0.596973 2.961207 0.407386
v 1.194268 2.894282 0.426790
v -1.194268 2.894282 0.426790
v -0.623740 2.455041 0.783698
v 0.623740 2.455041 0.783698
v -1.194268 2.447147 0.771713
v 1.194268 2.447147 0.771713
v 1.194267 2.886287 0.414803
v -1.194268 2.886287 0.414803
v 0.623740 2.447053 0.771710
v -0.602922 2.886425 0.414175
v 0.596972 2.886425 0.414175
v -0.623740 2.447053 0.771710
v 0.596973 2.896265 0.425911
v -0.602922 2.896265 0.425911
v 0.535415 1.343796 2.718977
v 1.275772 1.394600 2.562984
v 1.275772 1.065278 2.494730
v 0.801411 1.009856 2.598880
v 0.535415 1.009043 2.653310
v -0.535415 1.343796 2.718977
v -1.275772 1.394600 2.562984
v -1.275772 1.065278 2.494730
v -0.801411 1.009856 2.598880
v -0.535415 1.009043 2.653310
v 1.275772 2.090366 1.828773
v 1.275772 2.381698 0.946030
v 1.275772 2.431301 0.808494
v 1.275772 2.644332 0.600340
v 1.275772 2.894293 0.426790
v 1.275772 2.991709 0.399730
v 1.275772 3.010213 0.291564
v 1.275772 3.009901 -0.711507
v 1.275772 2.936283 -0.821903
v 1.275772 2.936282 -1.824974
v 1.275772 2.936282 -2.754440
v 1.275772 2.936282 -3.671503
v 1.275772 2.936282 -4.302321
v 1.275772 2.983674 -4.357806
v 1.275772 2.982216 -4.591025
v 1.275772 2.862037 -4.638858
v 1.275772 1.581828 -4.795351
v 1.275772 1.508655 -4.564440
v 1.275772 1.672655 -4.325645
v 1.275774 1.653387 -3.450237
v 1.275772 0.952391 -3.223815
v 1.275772 0.863071 -2.260677
v 1.275774 1.642083 -2.001447
v 1.275772 1.647933 -0.748583
v 1.275774 1.464740 -0.730108
v 1.275774 1.457932 0.706553
v 1.275772 1.583629 0.939977
v 1.275772 1.564875 1.504285
v 1.275772 1.507108 1.764362
v 1.275774 1.367141 1.960299
v 1.275772 1.072740 2.147014
v 1.275772 1.394600 2.562984
v 1.275772 1.065278 2.494730
v 1.275772 1.781564 2.498067
v 1.275772 2.023837 -0.738470
v 1.275772 2.024392 -1.987027
v 1.275772 2.019342 -3.436359
v 1.275772 2.025755 -4.737949
v 1.276789 1.592540 0.463330
v 1.276789 1.596833 -0.050797
v 1.276789 2.117995 -0.412144
v 1.276789 2.868767 0.247330
v 1.276789 2.536285 0.474226
v 1.276789 2.332491 0.293471
v 1.276789 2.435504 0.427381
v 1.276789 2.506977 0.432316
v 1.276789 2.688926 0.269496
v 1.276789 2.776334 0.257050
v 1.276789 2.781900 -0.295413
v 1.276789 2.454433 -0.219305
v 1.276789 2.411872 0.137478
v 1.276789 2.355393 0.143277
v 1.256332 2.332491 0.293471
v 1.256332 2.435504 0.427381
v 1.256332 2.506977 0.432316
v 1.256332 2.688926 0.269496
v 1.256332 2.776334 0.257050
v 1.256332 2.781900 -0.295413
v 1.256332 2.454433 -0.219305
v 1.256332 2.411872 0.137478
v 1.256332 2.355393 0.143277
v 1.276789 2.877221 -0.392029
v 1.276015 1.290155 0.496041
v 1.276015 1.207176 0.452345
v 1.276015 1.217664 -0.620870
v 1.276015 1.298184 -0.657133
v 1.276015 0.930178 0.384852
v 1.276015 0.794668 0.315824
v 1.276015 0.822264 -0.437592
v 1.276015 0.942580 -0.492816
v -1.275772 2.090366 1.828773
v -1.275772 2.381698 0.946030
v -1.275772 2.431301 0.808494
v -1.275772 2.644332 0.600340
v -1.275772 2.894293 0.426790
v -1.275772 2.991709 0.399730
v -1.275772 3.010213 0.291564
v -1.275772 3.009901 -0.711507
v -1.275772 2.936283 -0.821903
v -1.275772 2.936282 -1.824974
v -1.275772 2.936282 -2.754440
v -1.275772 2.936282 -3.671503
v -1.275772 2.936282 -4.302321
v -1.275772 2.983674 -4.357806
v -1.275772 2.982216 -4.591025
v -1.275772 2.862037 -4.638858
v -1.275772 1.581828 -4.795351
v -1.275772 1.508655 -4.564440
v -1.275772 1.672655 -4.325645
v -1.275774 1.653387 -3.450237
v -1.275772 0.952391 -3.223815
v -1.275772 0.863071 -2.260677
v -1.275774 1.642083 -2.001447
v -1.275772 1.647933 -0.748583
v -1.275774 1.464740 -0.730108
v -1.275774 1.457932 0.706553
v -1.275772 1.583629 0.939977
v -1.275772 1.564875 1.504285
v -1.275772 1.507108 1.764362
v -1.275774 1.367141 1.960299
v -1.275772 1.072740 2.147014
v -1.275772 1.394600 2.562984
v -1.275772 1.065278 2.494730
v -1.275772 1.781564 2.498067
v -1.275772 2.023837 -0.738470
v -1.275772 2.024392 -1.987027
v -1.275772 2.019342 -3.436359
v -1.275772 2.025755 -4.737949
v -1.276789 1.592540 0.463330
v -1.276789 1.596833 -0.050797
v -1.276789 2.117995 -0.412144
v -1.276789 2.868767 0.247330
v -1.276789 2.536285 0.474226
v -1.276789 2.332491 0.293471
v -1.276789 2.435504 0.427381
v -1.276789 2.506977 0.432316
v -1.276789 2.688926 0.269496
v -1.276789 2.776334 0.257050
v -1.276789 2.781900 -0.295413
v -1.276789 2.454433 -0.219305
v -1.276789 2.411872 0.137478
v -1.276789 2.355393 0.143277
v -1.256332 2.332491 0.293471
v -1.256332 2.435504 0.427381
v -1.256332 2.506977 0.432316
v -1.256332 2.688926 0.269496
v -1.256332 2.776334 0.257050
v -1.256332 2.781900 -0.295413
v -1.256332 2.454433 -0.219305
v -1.256332 2.411872 0.137478
v -1.256332 2.355393 0.143277
v -1.276789 2.877221 -0.392029
v -1.276015 1.290155 0.496041
v -1.276015 1.207176 0.452345
v -1.276015 1.217664 -0.620870
v -1.276015 1.298184 -0.657133
v -1.276015 0.930178 0.384852
v -1.276015 0.794668 0.315824
v -1.276015 0.822264 -0.437592
v -1.276015 0.942580 -0.492816
v 1.275772 2.991709 0.399730
v 1.275772 3.010213 0.291564
v 1.275772 3.009901 -0.711507
v 1.275772 2.936283 -0.821903
v 1.275772 2.936282 -1.824974
v 1.275772 2.936282 -2.754440
v 1.275772 2.936282 -3.671503
v 1.275772 2.936282 -4.302321
v 1.275772 2.983674 -4.357806
v 1.275772 2.982216 -4.591025
v 0.599947 3.024505 -0.806863
v 0.599947 3.024505 -1.814024
v 0.599947 3.024505 -2.755757
v 0.599947 3.024505 -3.640240
v 0.599947 3.024505 -4.315500
v -1.275772 2.991709 0.399730
v -1.275772 3.010213 0.291564
v -1.275772 3.009901 -0.711507
v -1.275772 2.936283 -0.821903
v -1.275772 2.936282 -1.824974
v -1.275772 2.936282 -2.754440
v -1.275772 2.936282 -3.671503
v -1.275772 2.936282 -4.302321
v -1.275772 2.983674 -4.357806
v -1.275772 2.982216 -4.591025
v -0.599947 3.024505 -0.806863
v -0.599947 3.024505 -1.814024
v -0.599947 3.024505 -2.755757
v -0.599947 3.024505 -3.640240
v -0.599947 3.024505 -4.315500
v -0.599947 3.024505 -4.548722
v 0.599947 3.024505 -4.548722
v -0.599947 3.022641 0.313477
v 0.599947 3.022641 0.313477
v -0.599947 3.006513 0.407359
v 0.599947 2.935010 -4.596558
v -0.599947 2.935010 -4.596558
v -1.194267 2.991694 0.399729
v 0.599947 3.006513 0.407359
v 1.194267 2.991694 0.399729
v 1.194267 2.959219 0.408266
v -1.194267 2.959219 0.408266
v -0.602921 2.961207 0.407386
v 0.596973 2.961207 0.407386
v 0.535415 1.343796 2.718977
v 1.275772 1.394600 2.562984
v 1.275772 1.065278 2.494730
v 0.801411 1.009856 2.598880
v 0.535415 1.009043 2.653310
v 0.564520 1.345643 2.570624
v 1.217827 1.390113 2.433031
v 1.217827 1.095015 2.371867
v 0.799842 1.046100 2.463617
v 0.579024 1.047105 2.509047
v 0.760825 1.173362 2.553445
v 0.760825 1.056835 2.553445
v 0.829318 1.079090 2.553445
v 0.871648 1.137352 2.553445
v 0.871648 1.209370 2.553445
v 0.829318 1.267634 2.553445
v 0.760825 1.289889 2.553445
v 0.692332 1.267634 2.553445
v 0.650001 1.209370 2.553445
v 0.650001 1.137352 2.553445
v 0.692332 1.079090 2.553445
v 0.760825 1.056835 2.432793
v 0.829318 1.079090 2.432793
v 0.871648 1.137352 2.432793
v 0.871648 1.209370 2.432793
v 0.829318 1.267634 2.432793
v 0.760825 1.289889 2.432793
v 0.692332 1.267634 2.432793
v 0.650001 1.209370 2.432793
v 0.650001 1.137352 2.432793
v 0.692332 1.079090 2.432793
v 1.050105 1.202131 2.478859
v 1.050105 1.101296 2.478859
v 1.109375 1.120553 2.478859
v 1.146005 1.170970 2.478859
v 1.146005 1.233290 2.478859
v 1.109375 1.283707 2.478859
v 1.050105 1.302964 2.478859
v 0.990836 1.283707 2.478859
v 0.954207 1.233290 2.478859
v 0.954207 1.170970 2.478859
v 0.990836 1.120553 2.478859
v 1.050105 1.101296 2.368562
v 1.109375 1.120553 2.368562
v 1.146005 1.170970 2.368562
v 1.146005 1.233290 2.368562
v 1.109375 1.283707 2.368562
v 1.050105 1.302964 2.368562
v 0.990836 1.283707 2.368562
v 0.954207 1.233290 2.368562
v 0.954207 1.170970 2.368562
v 0.990836 1.120553 2.368562
v -0.535415 1.343796 2.718977
v -1.275772 1.394600 2.562984
v -1.275772 1.065278 2.494730
v -0.801411 1.009856 2.598880
v -0.535415 1.009043 2.653310
v -0.564520 1.345643 2.570624
v -1.217827 1.390113 2.433031
v -1.217827 1.095015 2.371867
v -0.799842 1.046100 2.463617
v -0.579024 1.047105 2.509047
v -0.760825 1.173362 2.553445
v -0.760825 1.056835 2.553445
v -0.829318 1.079090 2.553445
v -0.871648 1.137352 2.553445
v -0.871648 1.209370 2.553445
v -0.829318 1.267634 2.553445
v -0.760825 1.289889 2.553445
v -0.692332 1.267634 2.553445
v -0.650001 1.209370 2.553445
v -0.650001 1.137352 2.553445
v -0.692332 1.079090 2.553445
v -0.760825 1.056835 2.432793
v -0.829318 1.079090 2.432793
v -0.871648 1.137352 2.432793
v -0.871648 1.209370 2.432793
v -0.829318 1.267634 2.432793
v -0.760825 1.289889 2.432793
v -0.692332 1.267634 2.432793
v -0.650001 1.209370 2.432793
v -0.650001 1.137352 2.432793
v -0.692332 1.079090 2.432793
v -1.050105 1.202131 2.478859
v -1.050105 1.101296 2.478859
v -1.109375 1.120553 2.478859
v -1.146005 1.170970 2.478859
v -1.146005 1.233290 2.478859
v -1.109375 1.283707 2.478859
v -1.050105 1.302964 2.478859
v -0.990836 1.283707 2.478859
v -0.954207 1.233290 2.478859
v -0.954207 1.170970 2.478859
v -0.990836 1.120553 2.478859
v -1.050105 1.101296 2.368562
v -1.109375 1.120553 2.368562
v -1.146005 1.170970 2.368562
v -1.146005 1.233290 2.368562
v -1.109375 1.283707 2.368562
v -1.050105 1.302964 2.368562
v -0.990836 1.283707 2.368562
v -0.954207 1.233290 2.368562
v -0.954207 1.170970 2.368562
v -0.990836 1.120553 2.368562
v -1.194268 2.447147 0.771713
v 1.194268 2.447147 0.771713
v 1.194267 2.886287 0.414803
v -1.194268 2.886287 0.414803
v 0.623740 2.447053 0.771710
v -0.602922 2.886425 0.414175
v 0.596972 2.886425 0.414175
v -0.623740 2.447053 0.771710
v 1.256332 2.332491 0.293471
v 1.256332 2.435504 0.427381
v 1.256332 2.506977 0.432316
v 1.256332 2.688926 0.269496
v 1.256332 2.776334 0.257050
v 1.256332 2.781900 -0.295413
v 1.256332 2.454433 -0.219305
v 1.256332 2.411872 0.137478
v 1.256332 2.355393 0.143277
v -1.256332 2.332491 0.293471
v -1.256332 2.435504 0.427381
v -1.256332 2.506977 0.432316
v -1.256332 2.688926 0.269496
v -1.256332 2.776334 0.257050
v -1.256332 2.781900 -0.295413
v -1.256332 2.454433 -0.219305
v -1.256332 2.411872 0.137478
v -1.256332 2.355393 0.143277
v 0.380367 0.839103 1.272988
v 0.380367 0.839103 1.391272
v 0.380367 0.941539 1.332131
v 0.380367 0.941539 1.213847
v 0.380367 0.839103 1.154705
v 0.380367 0.736666 1.213847
v 0.380367 0.736666 1.332131
v 0.691603 0.839103 1.391272
v 0.691603 0.941539 1.332131
v 0.691603 0.941539 1.213847
v 0.691603 0.839103 1.154705
v 0.691603 0.736667 1.213847
v 0.691603 0.736667 1.332131
v 0.691603 0.839103 1.272988
v 0.581548 1.156071 1.458774
v 0.581548 0.440553 1.458774
v 0.754328 1.190612 1.481949
v 0.754328 0.406012 1.481949
v 0.754328 1.190612 1.086529
v 0.754328 0.406012 1.086529
v 0.581548 1.156071 1.109707
v 0.581548 0.440553 1.109707
v 0.332650 0.708949 1.272988
v 0.332650 0.708949 1.310548
v 0.352649 0.734604 1.291768
v 0.352649 0.734604 1.254207
v 0.332650 0.708949 1.235428
v 0.312653 0.683294 1.254207
v 0.312653 0.683294 1.291768
v 0.613506 0.490023 1.310548
v 0.633504 0.515679 1.291768
v 0.633504 0.515679 1.254207
v 0.613506 0.490023 1.235428
v 0.593508 0.464368 1.254207
v 0.593508 0.464368 1.291768
v 0.613506 0.490023 1.272988
v 0.380367 0.839103 -1.387988
v 0.380367 0.839103 -1.269705
v 0.380367 0.941539 -1.328846
v 0.380367 0.941539 -1.447130
v 0.380367 0.839103 -1.506272
v 0.380367 0.736666 -1.447130
v 0.380367 0.736666 -1.328846
v 0.691603 0.839103 -1.269705
v 0.691603 0.941539 -1.328846
v 0.691603 0.941539 -1.447130
v 0.691603 0.839103 -1.506272
v 0.691603 0.736666 -1.447130
v 0.691603 0.736666 -1.328846
v 0.691603 0.839103 -1.387988
v 0.581548 1.156071 -1.202204
v 0.581548 0.440553 -1.202204
v 0.754328 1.190611 -1.179026
v 0.754328 0.406011 -1.179026
v 0.754328 1.190611 -1.574446
v 0.754328 0.406011 -1.574446
v 0.581548 1.156071 -1.551269
v 0.581548 0.440553 -1.551269
v 0.332650 0.708949 -1.387988
v 0.332650 0.708949 -1.350427
v 0.352649 0.734604 -1.369207
v 0.352649 0.734604 -1.406768
v 0.332650 0.708949 -1.425548
v 0.312653 0.683294 -1.406768
v 0.312653 0.683294 -1.369207
v 0.613506 0.490023 -1.350427
v 0.633504 0.515678 -1.369207
v 0.633504 0.515678 -1.406768
v 0.613506 0.490023 -1.425548
v 0.593508 0.464368 -1.406768
v 0.593508 0.464368 -1.369207
v 0.613506 0.490023 -1.387988
v 0.380367 0.839103 -4.055755
v 0.380367 0.839103 -3.937472
v 0.380367 0.941539 -3.996612
v 0.380367 0.941539 -4.114897
v 0.380367 0.839103 -4.174037
v 0.380367 0.736666 -4.114897
v 0.380367 0.736666 -3.996612
v 0.691603 0.839103 -3.937472
v 0.691603 0.941539 -3.996612
v 0.691603 0.941539 -4.114897
v 0.691603 0.839103 -4.174037
v 0.691603 0.736666 -4.114897
v 0.691603 0.736666 -3.996612
v 0.691603 0.839103 -4.055755
v 0.581548 1.156071 -3.869969
v 0.581548 0.440553 -3.869969
v 0.754328 1.190611 -3.846790
v 0.754328 0.406011 -3.846790
v 0.754328 1.190611 -4.242216
v 0.754328 0.406011 -4.242216
v 0.581548 1.156070 -4.219036
v 0.581548 0.440553 -4.219036
v 0.332650 0.708948 -4.055755
v 0.332650 0.708948 -4.018193
v 0.352649 0.734603 -4.036973
v 0.352649 0.734603 -4.074535
v 0.332650 0.708948 -4.093315
v 0.312653 0.683293 -4.074535
v 0.312653 0.683293 -4.036973
v 0.613506 0.490023 -4.018193
v 0.633504 0.515678 -4.036973
v 0.633504 0.515678 -4.074535
v 0.613506 0.490023 -4.093315
v 0.593508 0.464368 -4.074535
v 0.593508 0.464368 -4.036973
v 0.613506 0.490023 -4.055755
v 0.467465 0.943407 1.272988
v 0.467465 0.943407 1.310548
v 0.487463 0.917752 1.291768
v 0.487463 0.917752 1.254207
v 0.467465 0.943407 1.235427
v 0.447467 0.969062 1.254207
v 0.447467 0.969062 1.291768
v 0.748320 1.162331 1.310548
v 0.768319 1.136677 1.291768
v 0.768319 1.136677 1.254207
v 0.748320 1.162331 1.235427
v 0.728322 1.187986 1.254207
v 0.728322 1.187986 1.291768
v 0.748320 1.162331 1.272988
v 0.467465 0.943406 -1.387988
v 0.467465 0.943406 -1.350427
v 0.487463 0.917752 -1.369207
v 0.487463 0.917752 -1.406768
v 0.467465 0.943406 -1.425548
v 0.447467 0.969062 -1.406768
v 0.447467 0.969062 -1.369207
v 0.748320 1.162331 -1.350427
v 0.768319 1.136677 -1.369207
v 0.768319 1.136677 -1.406768
v 0.748320 1.162331 -1.425548
v 0.728322 1.187986 -1.406768
v 0.728322 1.187986 -1.369207
v 0.748320 1.162331 -1.387988
v 0.467465 0.943406 -4.055755
v 0.467465 0.943406 -4.018193
v 0.487463 0.917751 -4.036973
v 0.487463 0.917751 -4.074535
v 0.467465 0.943406 -4.093315
v 0.447467 0.969061 -4.074535
v 0.447467 0.969061 -4.036973
v 0.748320 1.162331 -4.018193
v 0.768319 1.136676 -4.036973
v 0.768319 1.136676 -4.074535
v 0.748320 1.162331 -4.093315
v 0.728322 1.187986 -4.074535
v 0.728322 1.187986 -4.036973
v 0.748320 1.162331 -4.055755
v -0.380367 0.839103 1.272988
v -0.380367 0.839103 1.391272
v -0.380367 0.941539 1.332131
v -0.380367 0.941539 1.213847
v -0.380367 0.839103 1.154705
v -0.380367 0.736666 1.213847
v -0.380367 0.736666 1.332131
v -0.691603 0.839103 1.391272
v -0.691603 0.941539 1.332131
v -0.691603 0.941539 1.213847
v -0.691603 0.839103 1.154705
v -0.691603 0.736667 1.213847
v -0.691603 0.736667 1.332131
v -0.691603 0.839103 1.272988
v -0.581548 1.156071 1.458774
v -0.581548 0.440553 1.458774
v -0.754328 1.190612 1.481949
v -0.754328 0.406012 1.481949
v -0.754328 1.190612 1.086529
v -0.754328 0.406012 1.086529
v -0.581548 1.156071 1.109707
v -0.581548 0.440553 1.109707
v -0.332650 0.708949 1.272988
v -0.332650 0.708949 1.310548
v -0.352649 0.734604 1.291768
v -0.352649 0.734604 1.254207
v -0.332650 0.708949 1.235428
v -0.312653 0.683294 1.254207
v -0.312653 0.683294 1.291768
v -0.613506 0.490023 1.310548
v -0.633504 0.515679 1.291768
v -0.633504 0.515679 1.254207
v -0.613506 0.490023 1.235428
v -0.593508 0.464368 1.254207
v -0.593508 0.464368 1.291768
v -0.613506 0.490023 1.272988
v -0.380367 0.839103 -1.387988
v -0.380367 0.839103 -1.269705
v -0.380367 0.941539 -1.328846
v -0.380367 0.941539 -1.447130
v -0.380367 0.839103 -1.506272
v -0.380367 0.736666 -1.447130
v -0.380367 0.736666 -1.328846
v -0.691603 0.839103 -1.269705
v -0.691603 0.941539 -1.328846
v -0.691603 0.941539 -1.447130
v -0.691603 0.839103 -1.506272
v -0.691603 0.736666 -1.447130
v -0.691603 0.736666 -1.328846
v -0.691603 0.839103 -1.387988
v -0.581548 1.156071 -1.202204
v -0.581548 0.440553 -1.202204
v -0.754328 1.190611 -1.179026
v -0.754328 0.406011 -1.179026
v -0.754328 1.190611 -1.574446
v -0.754328 0.406011 -1.574446
v -0.581548 1.156071 -1.551269
v -0.581548 0.440553 -1.551269
v -0.332650 0.708949 -1.387988
v -0.332650 0.708949 -1.350427
v -0.352649 0.734604 -1.369207
v -0.352649 0.734604 -1.406768
v -0.332650 0.708949 -1.425548
v -0.312653 0.683294 -1.406768
v -0.312653 0.683294 -1.369207
v -0.613506 0.490023 -1.350427
v -0.633504 0.515678 -1.369207
v -0.633504 0.515678 -1.406768
v -0.613506 0.490023 -1.425548
v -0.593508 0.464368 -1.406768
v -0.593508 0.464368 -1.369207
v -0.613506 0.490023 -1.387988
v -0.380367 0.839103 -4.055755
v -0.380367 0.839103 -3.937472
v -0.380367 0.941539 -3.996612
v -0.380367 0.941539 -4.114897
v -0.380367 0.839103 -4.174037
v -0.380367 0.736666 -4.114897
v -0.380367 0.736666 -3.996612
v -0.691603 0.839103 -3.937472
v -0.691603 0.941539 -3.996612
v -0.691603 0.941539 -4.114897
v -0.691603 0.839103 -4.174037
v -0.691603 0.736666 -4.114897
v -0.691603 0.736666 -3.996612
v -0.691603 0.839103 -4.055755
v -0.581548 1.156071 -3.869969
v -0.581548 0.440553 -3.869969
v -0.754328 1.190611 -3.846790
v -0.754328 0.406011 -3.846790
v -0.754328 1.190611 -4.242216
v -0.754328 0.406011 -4.242216
v -0.581548 1.156070 -4.219036
v -0.581548 0.440553 -4.219036
v -0.332650 0.708948 -4.055755
v -0.332650 0.708948 -4.018193
v -0.352649 0.734603 -4.036973
v -0.352649 0.734603 -4.074535
v -0.332650 0.708948 -4.093315
v -0.312653 0.683293 -4.074535
v -0.312653 0.683293 -4.036973
v -0.613506 0.490023 -4.018193
v -0.633504 0.515678 -4.036973
v -0.633504 0.515678 -4.074535
v -0.613506 0.490023 -4.093315
v -0.593508 0.464368 -4.074535
v -0.593508 0.464368 -4.036973
v -0.613506 0.490023 -4.055755
v -0.467465 0.943407 1.272988
v -0.467465 0.943407 1.310548
v -0.487463 0.917752 1.291768
v -0.487463 0.917752 1.254207
v -0.467465 0.943407 1.235427
v -0.447467 0.969062 1.254207
v -0.447467 0.969062 1.291768
v -0.748320 1.162331 1.310548
v -0.768319 1.136677 1.291768
v -0.768319 1.136677 1.254207
v -0.748320 1.162331 1.235427
v -0.728322 1.187986 1.254207
v -0.728322 1.187986 1.291768
v -0.748320 1.162331 1.272988
v -0.467465 0.943406 -1.387988
v -0.467465 0.943406 -1.350427
v -0.487463 0.917752 -1.369207
v -0.487463 0.917752 -1.406768
v -0.467465 0.943406 -1.425548
v -0.447467 0.969062 -1.406768
v -0.447467 0.969062 -1.369207
v -0.748320 1.162331 -1.350427
v -0.768319 1.136677 -1.369207
v -0.768319 1.136677 -1.406768
v -0.748320 1.162331 -1.425548
v -0.728322 1.187986 -1.406768
v -0.728322 1.187986 -1.369207
v -0.748320 1.162331 -1.387988
v -0.467465 0.943406 -4.055755
v -0.467465 0.943406 -4.018193
v -0.487463 0.917751 -4.036973
v -0.487463 0.917751 -4.074535
v -0.467465 0.943406 -4.093315
v -0.447467 0.969061 -4.074535
v -0.447467 0.969061 -4.036973
v -0.748320 1.162331 -4.018193
v -0.768319 1.136676 -4.036973
v -0.768319 1.136676 -4.074535
v -0.748320 1.162331 -4.093315
v -0.728322 1.187986 -4.074535
v -0.728322 1.187986 -4.036973
v -0.748320 1.162331 -4.055755
vt 0.516037 0.204537
vt 0.531468 0.237325
vt 0.516072 0.260566
vt 0.531468 0.270660
vt 0.523608 0.426591
vt 0.579500 0.339132
vt 0.579500 0.281761
vt 0.932689 0.140786
vt 0.933264 0.134628
vt 0.996152 0.135368
vt 0.932689 0.256569
vt 0.996152 0.259558
vt 0.933264 0.263760
vt 0.963669 0.370152
vt 0.932689 0.372951
vt 0.932674 0.367025
vt 0.963669 0.480453
vt 0.996152 0.491688
vt 0.932689 0.497469
vt 0.963669 0.374763
vt 0.932689 0.401176
vt 0.964503 0.385898
vt 0.964503 0.388878
vt 0.932689 0.481606
vt 0.458508 0.523105
vt 0.447237 0.525565
vt 0.464777 0.507946
vt 0.408814 0.237325
vt 0.423684 0.204537
vt 0.423553 0.260566
vt 0.416674 0.426591
vt 0.408814 0.270660
vt 0.360782 0.339132
vt 0.360782 0.281761
vt 0.932674 0.134628
vt 0.869786 0.135368
vt 0.869786 0.259558
vt 0.932674 0.263760
vt 0.902269 0.370152
vt 0.869786 0.491688
vt 0.902269 0.480453
vt 0.902269 0.374763
vt 0.901436 0.385898
vt 0.901436 0.388878
vt 0.423684 0.131771
vt 0.423684 0.175842
vt 0.401444 0.171177
vt 0.516037 0.131771
vt 0.538838 0.171177
vt 0.516037 0.175842
vt 0.427676 0.164207
vt 0.575151 0.495434
vt 0.384447 0.477453
vt 0.393373 0.493563
vt 0.748004 0.481194
vt 0.756930 0.497304
vt 0.618410 0.522371
vt 0.535714 0.522008
vt 0.572513 0.426591
vt 0.579500 0.414801
vt 0.579500 0.426591
vt 0.367769 0.426591
vt 0.360782 0.414801
vt 0.360782 0.426591
vt 0.312182 0.074130
vt 0.321853 0.066426
vt 0.321853 0.077985
vt 0.028792 0.074130
vt 0.019121 0.077985
vt 0.019121 0.066426
vt 0.312182 0.066424
vt 0.028792 0.066424
vt 0.312182 0.014322
vt 0.321853 0.011494
vt 0.321853 0.036769
vt 0.312182 0.011493
vt 0.028792 0.014322
vt 0.019121 0.036769
vt 0.019121 0.011494
vt 0.028792 0.011493
vt 0.512606 0.164207
vt 0.538838 0.175912
vt 0.932689 0.039364
vt 0.996152 0.020066
vt 0.996152 0.039859
vt 0.932689 0.017943
vt 0.933264 0.067958
vt 0.996152 0.060328
vt 0.932689 0.160165
vt 0.996152 0.237337
vt 0.932689 0.237303
vt 0.996152 0.154777
vt 0.996152 0.366954
vt 0.933264 0.367025
vt 0.996152 0.511697
vt 0.933264 0.512564
vt 0.996152 0.560069
vt 0.932689 0.559172
vt 0.932689 0.580753
vt 0.996152 0.582363
vt 0.996152 0.599159
vt 0.932689 0.597907
vt 0.996152 0.615164
vt 0.932689 0.614492
vt 0.579500 0.208892
vt 0.579500 0.242063
vt 0.770170 0.504679
vt 0.787966 0.520979
vt 0.772745 0.524712
vt 0.788704 0.506292
vt 0.751588 0.526903
vt 0.752427 0.539149
vt 0.705055 0.539071
vt 0.700680 0.525998
vt 0.613300 0.539013
vt 0.539925 0.539444
vt 0.996152 0.368537
vt 0.996173 0.469897
vt 0.963669 0.474298
vt 0.964503 0.467578
vt 0.996173 0.473643
vt 0.996173 0.377901
vt 0.996173 0.374793
vt 0.996173 0.388878
vt 0.964503 0.464112
vt 0.996173 0.464112
vt 0.932689 0.472783
vt 0.996173 0.458195
vt 0.932689 0.452130
vt 0.996173 0.393612
vt 0.869787 0.020066
vt 0.869787 0.039859
vt 0.932674 0.067958
vt 0.869787 0.060328
vt 0.869787 0.237337
vt 0.869787 0.154777
vt 0.869787 0.366954
vt 0.869787 0.511697
vt 0.932674 0.512564
vt 0.869787 0.560069
vt 0.869787 0.582363
vt 0.869786 0.599159
vt 0.869787 0.615164
vt 0.360782 0.208892
vt 0.360782 0.242063
vt 0.869786 0.368537
vt 0.902269 0.474298
vt 0.869766 0.469897
vt 0.901436 0.467578
vt 0.869766 0.473643
vt 0.869766 0.377901
vt 0.000000 1.000000
vt 0.869766 0.374793
vt 0.869766 0.464112
vt 0.901436 0.464112
vt 0.869766 0.388878
vt 0.869766 0.458195
vt 0.869766 0.393612
vt 0.501892 0.103115
vt 0.438390 0.103115
vt 0.579500 0.132443
vt 0.579500 0.162249
vt 0.360782 0.132443
vt 0.360782 0.162249
vt 0.590438 0.239278
vt 0.660759 0.234366
vt 0.660759 0.243678
vt 0.590438 0.226774
vt 0.785609 0.234366
vt 0.855930 0.239278
vt 0.785609 0.243678
vt 0.855930 0.226774
vt 0.660980 0.139738
vt 0.590438 0.139757
vt 0.785388 0.139738
vt 0.855930 0.139757
vt 0.667473 0.068686
vt 0.779576 0.043597
vt 0.779576 0.068686
vt 0.667473 0.043597
vt 0.513292 0.090553
vt 0.426990 0.090553
vt 0.364086 0.501217
vt 0.375870 0.519703
vt 0.436511 0.533188
vt 0.403393 0.531838
vt 0.388059 0.528087
vt 0.096482 0.014311
vt 0.096482 0.011481
vt 0.244492 0.011481
vt 0.244492 0.014311
vt 0.028792 0.013374
vt 0.028792 0.065476
vt 0.096482 0.013363
vt 0.244492 0.013363
vt 0.312182 0.013374
vt 0.312182 0.065476
vt 0.241316 0.066661
vt 0.241316 0.074365
vt 0.098953 0.066661
vt 0.098953 0.074365
vt 0.241316 0.065493
vt 0.098953 0.065493
vt 0.855930 0.093565
vt 0.590438 0.093565
vt 0.579500 0.178908
vt 0.431852 0.840574
vt 0.442411 0.956049
vt 0.428440 0.965366
vt 0.773286 0.840005
vt 0.803045 0.956049
vt 0.686985 0.956049
vt 0.279757 0.785991
vt 0.219434 0.784863
vt 0.248976 0.768956
vt 0.106952 0.848994
vt 0.115104 0.775179
vt 0.148018 0.782490
vt 0.022249 0.809913
vt 0.090306 0.757466
vt 0.014033 0.760941
vt 0.746388 0.704976
vt 0.591689 0.792261
vt 0.624496 0.693672
vt 0.775042 0.793692
vt 0.066677 0.720207
vt 0.022671 0.719263
vt 0.589864 0.840645
vt 0.433132 0.793001
vt 0.885831 0.796130
vt 0.938009 0.840817
vt 0.569355 0.956049
vt 0.882879 0.956049
vt 0.375780 0.936512
vt 0.305863 0.935807
vt 0.366148 0.895069
vt 0.320995 0.889683
vt 0.304288 0.924746
vt 0.320261 0.882535
vt 0.301253 0.879636
vt 0.284306 0.892673
vt 0.283682 0.901718
vt 0.278378 0.905428
vt 0.307093 0.947505
vt 0.388008 0.948575
vt 0.390553 0.852491
vt 0.284381 0.950736
vt 0.262417 0.919102
vt 0.344823 0.786534
vt 0.430794 0.769817
vt 0.301495 0.965406
vt 0.236074 0.892141
vt 0.218668 0.885864
vt 0.421558 0.748739
vt 0.281147 0.737221
vt 0.416969 0.738548
vt 0.275617 0.747723
vt 0.393774 0.688508
vt 0.289689 0.702165
vt 0.298424 0.685016
vt 0.400763 0.703735
vt 0.925469 0.946653
vt 0.919416 0.961863
vt 0.889900 0.962047
vt 0.916051 0.775375
vt 0.945274 0.784635
vt 0.287806 0.963064
vt 0.241669 0.223804
vt 0.321853 0.212490
vt 0.321853 0.225588
vt 0.241669 0.640090
vt 0.321853 0.638527
vt 0.321853 0.645109
vt 0.019121 0.212490
vt 0.099305 0.223804
vt 0.019121 0.225588
vt 0.019121 0.638527
vt 0.099305 0.640090
vt 0.019121 0.645109
vt 0.028792 0.080646
vt 0.019121 0.093480
vt 0.019121 0.080646
vt 0.312182 0.080646
vt 0.321853 0.080646
vt 0.321853 0.093480
vt 0.312182 0.077983
vt 0.028792 0.077983
vt 0.241669 0.343300
vt 0.321853 0.344599
vt 0.241669 0.455032
vt 0.321853 0.454876
vt 0.241669 0.559974
vt 0.321853 0.563682
vt 0.099305 0.343300
vt 0.019121 0.344599
vt 0.099305 0.455032
vt 0.019121 0.454876
vt 0.099305 0.559974
vt 0.019121 0.563682
vt 0.099305 0.667761
vt 0.019121 0.672780
vt 0.241669 0.667761
vt 0.321853 0.672780
vt 0.099305 0.090879
vt 0.241669 0.090879
vt 0.099305 0.079741
vt 0.241669 0.079741
vt 0.605806 0.420280
vt 0.624545 0.420195
vt 0.604575 0.445614
vt 0.716460 0.426492
vt 0.716460 0.406075
vt 0.728461 0.409974
vt 0.735878 0.420183
vt 0.735878 0.432802
vt 0.728461 0.443011
vt 0.716460 0.446910
vt 0.704458 0.443011
vt 0.697041 0.432802
vt 0.697041 0.420183
vt 0.704458 0.409974
vt 0.775035 0.432317
vt 0.775035 0.414998
vt 0.785215 0.418306
vt 0.791507 0.426966
vt 0.791507 0.437669
vt 0.785215 0.446329
vt 0.775035 0.449637
vt 0.764855 0.446329
vt 0.758564 0.437669
vt 0.758564 0.426966
vt 0.764855 0.418306
vt 0.602105 0.417050
vt 0.600994 0.448791
vt 0.624678 0.417119
vt 0.664933 0.453658
vt 0.660016 0.449388
vt 0.664933 0.421822
vt 0.660016 0.424346
vt 0.990867 0.687162
vt 0.923177 0.635049
vt 0.990867 0.635060
vt 0.920001 0.687179
vt 0.775167 0.635049
vt 0.777638 0.687179
vt 0.707476 0.687162
vt 0.707476 0.635060
vt 0.759896 0.561502
vt 0.742325 0.583585
vt 0.742949 0.574539
vt 0.762931 0.606612
vt 0.779638 0.571549
vt 0.824791 0.576935
vt 0.834423 0.618378
vt 0.764506 0.617674
vt 0.778904 0.564401
vt 0.775562 0.528513
vt 0.760593 0.528513
vt 0.768077 0.541477
vt 0.783047 0.541477
vt 0.790531 0.528513
vt 0.783047 0.515549
vt 0.768077 0.515549
vt 0.775562 0.512042
vt 0.770808 0.512042
vt 0.773185 0.515288
vt 0.777939 0.515288
vt 0.780315 0.512042
vt 0.777939 0.508795
vt 0.773185 0.508795
vt 0.775562 0.484336
vt 0.773185 0.487583
vt 0.770808 0.484336
vt 0.777939 0.487583
vt 0.780315 0.484336
vt 0.777939 0.481089
vt 0.773185 0.481089
vt 0.752050 0.543912
vt 0.749117 0.473704
vt 0.749117 0.548284
vt 0.752050 0.478075
vt 0.799159 0.473704
vt 0.799159 0.548284
vt 0.796226 0.478075
vt 0.796226 0.543912
usemtl mat1
s 1
f 285/184 290/185 288/186
f 290/187 403/188 288/186
f 241/189 290/187 289/190
f 275/191 268/192 252/193
f 265/194 255/195 264/196
f 312/197 293/198 276/199
f 310/200 258/201 313/202
f 311/203 293/198 312/197
f 277/204 306/205 308/206
f 314/207 310/200 313/202
f 314/208 313/209 279/210
f 366/211 360/212 364/213
f 405/214 366/215 364/213
f 366/215 316/216 365/217
f 343/218 350/191 327/219
f 330/220 340/194 339/221
f 369/198 389/222 351/199
f 333/223 387/224 390/202
f 369/198 388/225 389/222
f 383/226 352/204 385/227
f 387/224 391/207 390/202
f 390/209 391/208 354/210
f 359/228 363/229 367/230
f 284/231 291/232 395/233
f 359/228 371/234 363/229
f 401/235 368/236 372/237
f 401/235 373/238 368/236
f 401/235 399/239 373/238
f 402/235 296/238 400/239
f 402/235 292/236 296/238
f 402/235 295/237 292/236
f 402/235 265/240 293/241
f 401/235 369/241 340/240
f 404/242 242/243 243/244
f 404/242 403/188 242/243
f 406/245 317/246 405/214
f 406/245 318/247 317/246
f 409/248 245/249 246/250
f 410/251 321/252 320/253
f 413/254 245/249 409/248
f 414/255 410/251 320/253
f 408/256 243/257 244/258
f 408/256 404/259 243/257
f 407/260 319/261 318/262
f 407/260 318/262 406/263
f 396/264 284/231 395/233
f 431/233 430/265 427/184
f 436/233 432/184 435/265
f 270/266 249/267 250/268
f 270/266 271/269 249/267
f 269/270 250/268 251/271
f 269/270 270/266 250/268
f 269/270 252/193 268/192
f 269/270 251/271 252/193
f 267/272 254/273 266/274
f 267/272 253/275 254/273
f 264/196 256/276 276/277
f 264/196 255/195 256/276
f 313/202 259/278 280/279
f 313/202 258/201 259/278
f 280/279 260/280 281/281
f 280/279 259/278 260/280
f 282/282 260/280 261/283
f 282/282 281/281 260/280
f 282/282 262/284 283/285
f 282/282 261/283 262/284
f 283/285 263/286 284/287
f 283/285 262/284 263/286
f 290/185 286/288 289/289
f 290/185 285/184 286/288
f 241/189 403/188 290/187
f 241/189 242/243 403/188
f 273/290 271/291 270/292
f 273/290 272/293 271/291
f 274/294 270/292 269/295
f 274/294 273/290 270/292
f 274/294 268/296 275/297
f 274/294 269/295 268/296
f 275/191 253/275 267/272
f 275/191 252/193 253/275
f 293/241 264/298 276/299
f 293/241 265/240 264/298
f 265/194 254/273 255/195
f 265/194 266/274 254/273
f 310/200 257/300 258/201
f 310/200 312/197 257/300
f 298/301 309/302 305/303
f 298/301 297/304 309/302
f 298/301 306/205 299/305
f 298/301 305/303 306/205
f 299/305 311/203 300/306
f 299/305 306/205 311/203
f 297/304 311/203 309/302
f 297/304 300/306 311/203
f 304/307 307/308 301/309
f 304/307 308/206 307/308
f 306/205 307/308 308/206
f 306/205 305/303 307/308
f 309/302 312/197 310/200
f 309/302 311/203 312/197
f 293/198 306/205 277/204
f 293/198 311/203 306/205
f 309/302 314/207 279/310
f 309/302 310/200 314/207
f 277/204 302/311 278/312
f 277/204 303/313 302/311
f 324/314 345/266 325/315
f 324/314 346/269 345/266
f 325/315 344/316 326/317
f 325/315 345/266 344/316
f 327/219 344/316 343/218
f 327/219 326/317 344/316
f 329/318 342/272 341/274
f 329/318 328/319 342/272
f 331/320 339/221 351/199
f 331/320 330/220 339/221
f 334/321 390/202 355/322
f 334/321 333/223 390/202
f 335/323 355/322 356/281
f 335/323 334/321 355/322
f 335/323 357/282 336/324
f 335/323 356/281 357/282
f 337/325 357/282 358/285
f 337/325 336/324 357/282
f 338/326 358/285 359/287
f 338/326 337/325 358/285
f 361/327 366/211 365/328
f 361/327 360/212 366/211
f 405/214 316/216 366/215
f 405/214 317/246 316/216
f 346/291 348/290 345/292
f 346/291 347/293 348/290
f 345/292 349/294 344/295
f 345/292 348/290 349/294
f 343/296 349/294 350/297
f 343/296 344/295 349/294
f 328/319 350/191 342/272
f 328/319 327/219 350/191
f 339/298 369/241 351/299
f 339/298 340/240 369/241
f 329/318 340/194 330/220
f 329/318 341/274 340/194
f 332/329 387/224 333/223
f 332/329 389/222 387/224
f 386/330 375/331 382/332
f 386/330 374/333 375/331
f 383/226 375/331 376/334
f 383/226 382/332 375/331
f 388/335 376/335 377/335
f 388/335 383/335 376/335
f 388/225 374/333 386/330
f 388/225 377/336 374/333
f 385/227 378/337 384/338
f 385/227 381/339 378/337
f 384/338 383/226 385/227
f 384/338 382/332 383/226
f 389/222 386/330 387/224
f 389/222 388/225 386/330
f 383/226 369/198 352/204
f 383/226 388/225 369/198
f 391/207 386/330 354/310
f 391/207 387/224 386/330
f 379/340 352/204 353/312
f 379/340 380/341 352/204
f 288/186 405/214 364/213
f 288/186 403/188 405/214
f 288/186 360/212 285/184
f 288/186 364/213 360/212
f 360/212 395/233 285/184
f 360/212 363/229 395/233
f 395/233 371/234 396/264
f 395/233 363/229 371/234
f 371/234 292/342 396/264
f 371/234 368/343 292/342
f 291/232 263/344 287/345
f 291/232 284/231 263/344
f 367/230 338/346 359/228
f 367/230 362/347 338/346
f 247/348 397/349 394/350
f 247/348 248/351 397/349
f 398/352 322/353 393/354
f 398/352 323/355 322/353
f 315/356 248/351 294/357
f 315/356 397/349 248/351
f 392/358 323/355 398/352
f 392/358 370/359 323/355
f 271/360 347/361 346/362
f 271/360 272/363 347/361
f 348/290 272/293 273/290
f 348/290 347/293 272/293
f 296/238 368/236 373/238
f 296/238 292/236 368/236
f 284/231 292/342 295/364
f 284/231 396/264 292/342
f 359/228 368/343 371/234
f 359/228 372/365 368/343
f 399/239 273/290 400/239
f 399/239 348/290 273/290
f 400/239 373/238 399/239
f 400/239 296/238 373/238
f 265/194 267/272 266/274
f 265/194 275/191 267/272
f 340/194 342/272 350/191
f 340/194 341/274 342/272
f 400/239 274/294 275/297
f 400/239 273/290 274/294
f 279/310 277/204 278/312
f 279/310 293/198 277/204
f 295/237 313/209 284/366
f 295/237 279/210 313/209
f 399/239 349/294 348/290
f 399/239 350/297 349/294
f 354/310 352/204 369/198
f 354/310 353/312 352/204
f 372/237 390/209 354/210
f 372/237 359/366 390/209
f 402/235 275/297 265/240
f 402/235 400/239 275/297
f 401/235 350/297 399/239
f 401/235 340/240 350/297
f 402/235 279/210 295/237
f 402/235 293/241 279/210
f 401/235 354/210 369/241
f 401/235 372/237 354/210
f 283/367 313/209 280/368
f 283/367 284/366 313/209
f 283/367 281/369 282/370
f 283/367 280/368 281/369
f 358/367 390/209 359/366
f 358/367 355/368 390/209
f 358/367 356/369 355/368
f 358/367 357/370 356/369
f 414/255 319/261 407/260
f 414/255 320/253 319/261
f 244/258 413/254 408/256
f 244/258 245/249 413/254
f 406/263 415/371 407/260
f 406/263 405/372 415/371
f 403/373 408/256 416/374
f 403/373 404/259 408/256
f 405/372 416/374 415/371
f 405/372 403/373 416/374
f 417/375 414/255 407/260
f 417/375 420/376 414/255
f 424/377 407/260 415/371
f 424/377 417/375 407/260
f 421/378 408/256 418/379
f 421/378 416/374 408/256
f 424/377 416/374 421/378
f 424/377 415/371 416/374
f 418/379 413/254 419/380
f 418/379 408/256 413/254
f 409/248 425/381 413/254
f 409/248 412/382 425/381
f 426/383 410/251 414/255
f 426/383 411/384 410/251
f 412/382 426/383 425/381
f 412/382 411/384 426/383
f 425/381 419/380 413/254
f 425/381 423/385 419/380
f 414/255 422/386 426/383
f 414/255 420/376 422/386
f 425/381 422/386 423/385
f 425/381 426/383 422/386
f 324/387 392/358 346/362
f 324/387 370/359 392/358
f 315/356 249/388 271/360
f 315/356 294/357 249/388
f 278/312 307/308 279/310
f 307/308 305/303 279/310
f 279/310 305/303 309/302
f 312/197 256/276 257/300
f 312/197 276/277 256/276
f 331/320 389/222 332/329
f 331/320 351/199 389/222
f 385/227 380/341 381/339
f 385/227 352/204 380/341
f 308/206 303/313 277/204
f 308/206 304/307 303/313
f 353/312 354/310 384/338
f 384/338 354/310 382/332
f 382/332 354/310 386/330
f 384/338 379/340 353/312
f 384/338 378/337 379/340
f 302/311 307/308 278/312
f 302/311 301/309 307/308
f 271/360 392/358 315/356
f 271/360 346/362 392/358
f 315/356 398/352 397/349
f 315/356 392/358 398/352
f 428/288 430/265 429/389
f 428/288 427/184 430/265
f 435/265 433/288 434/389
f 435/265 432/184 433/288
f 471/390 445/391 444/392
f 473/393 448/394 447/395
f 475/396 463/397 462/398
f 437/399 465/400 464/401
f 470/402 466/403 465/400
f 470/402 468/404 466/403
f 470/402 465/400 437/399
f 515/391 541/390 514/392
f 518/394 543/393 517/395
f 533/397 545/396 532/398
f 535/400 507/399 534/401
f 536/403 540/402 535/400
f 538/404 540/402 536/403
f 535/400 540/402 507/399
f 457/405 459/406 458/407
f 457/405 456/408 459/406
f 467/409 468/404 469/410
f 467/409 466/403 468/404
f 473/393 459/406 456/408
f 473/393 472/411 459/406
f 472/411 460/412 459/406
f 472/411 471/390 460/412
f 473/393 455/413 474/414
f 473/393 456/408 455/413
f 471/390 446/415 445/391
f 471/390 472/411 446/415
f 473/393 449/416 448/394
f 473/393 474/414 449/416
f 494/417 484/418 493/418
f 494/417 485/417 484/418
f 495/419 485/417 494/417
f 495/419 486/419 485/417
f 496/420 486/419 495/419
f 496/420 487/420 486/419
f 493/418 483/421 492/421
f 493/418 484/418 483/421
f 497/422 487/420 496/420
f 497/422 488/422 487/420
f 489/423 488/422 497/422
f 489/423 480/423 488/422
f 490/424 480/423 489/423
f 490/424 481/424 480/423
f 491/425 481/424 490/424
f 491/425 482/425 481/424
f 492/421 482/425 491/425
f 492/421 483/421 482/425
f 479/426 481/424 482/425
f 479/426 475/396 481/424
f 478/427 485/417 498/428
f 478/427 484/418 485/417
f 498/428 486/419 477/429
f 498/428 485/417 486/419
f 498/428 471/390 444/392
f 498/428 477/429 471/390
f 441/430 479/426 478/427
f 441/430 440/431 479/426
f 462/398 476/432 475/396
f 462/398 461/433 476/432
f 443/434 498/428 444/392
f 443/434 478/427 498/428
f 439/435 479/426 440/431
f 439/435 475/396 479/426
f 439/435 463/397 475/396
f 439/435 438/436 463/397
f 502/437 500/438 501/439
f 502/437 499/440 500/438
f 505/441 503/442 504/443
f 505/441 506/444 503/442
f 464/401 438/436 437/399
f 464/401 463/397 438/436
f 476/432 488/422 475/396
f 488/422 480/423 475/396
f 475/396 480/423 481/424
f 476/432 477/429 488/422
f 477/429 486/419 488/422
f 488/422 486/419 487/420
f 461/433 460/412 476/432
f 476/432 460/412 477/429
f 477/429 460/412 471/390
f 472/411 447/395 446/415
f 472/411 473/393 447/395
f 474/414 452/445 449/416
f 452/445 451/446 449/416
f 449/416 451/446 450/447
f 454/448 474/414 455/413
f 454/448 453/449 474/414
f 482/425 483/421 479/426
f 479/426 483/421 478/427
f 478/427 483/421 484/418
f 441/430 443/434 442/450
f 441/430 478/427 443/434
f 529/406 527/405 528/407
f 529/406 526/408 527/405
f 538/404 537/409 539/410
f 538/404 536/403 537/409
f 529/406 543/393 526/408
f 529/406 542/411 543/393
f 530/412 542/411 529/406
f 530/412 541/390 542/411
f 525/413 543/393 544/414
f 525/413 526/408 543/393
f 516/415 541/390 515/391
f 516/415 542/411 541/390
f 519/416 543/393 518/394
f 519/416 544/414 543/393
f 555/417 563/418 554/418
f 555/417 564/417 563/418
f 556/419 564/417 555/417
f 556/419 565/419 564/417
f 557/420 565/419 556/419
f 557/420 566/420 565/419
f 554/418 562/421 553/421
f 554/418 563/418 562/421
f 558/422 566/420 557/420
f 558/422 567/422 566/420
f 550/423 567/422 558/422
f 550/423 559/423 567/422
f 551/424 559/423 550/423
f 551/424 560/424 559/423
f 552/425 560/424 551/424
f 552/425 561/425 560/424
f 553/421 561/425 552/425
f 553/421 562/421 561/425
f 551/424 549/426 552/425
f 551/424 545/396 549/426
f 555/417 548/427 568/428
f 555/417 554/418 548/427
f 556/419 568/428 547/429
f 556/419 555/417 568/428
f 541/390 568/428 514/392
f 541/390 547/429 568/428
f 549/426 511/430 548/427
f 549/426 510/431 511/430
f 546/432 532/398 545/396
f 546/432 531/433 532/398
f 568/428 513/434 514/392
f 568/428 548/427 513/434
f 549/426 509/435 510/431
f 549/426 545/396 509/435
f 533/397 509/435 545/396
f 533/397 508/436 509/435
f 570/438 572/437 571/439
f 570/438 569/440 572/437
f 573/442 575/441 574/443
f 573/442 576/444 575/441
f 508/436 534/401 507/399
f 508/436 533/397 534/401
f 546/432 545/396 558/422
f 558/422 545/396 550/423
f 550/423 545/396 551/424
f 546/432 558/422 547/429
f 547/429 558/422 556/419
f 556/419 558/422 557/420
f 531/433 546/432 530/412
f 546/432 547/429 530/412
f 530/412 547/429 541/390
f 517/395 542/411 516/415
f 517/395 543/393 542/411
f 544/414 519/416 522/445
f 522/445 519/416 521/446
f 521/446 519/416 520/447
f 544/414 524/448 525/413
f 544/414 523/449 524/448
f 552/425 549/426 553/421
f 549/426 548/427 553/421
f 553/421 548/427 554/418
f 513/434 511/430 512/450
f 513/434 548/427 511/430
f 587/451 579/452 580/453
f 591/454 584/455 585/456
f 594/457 602/458 595/459
f 599/460 606/461 600/462
f 614/463 593/464 592/465
f 616/466 577/467 578/468
f 617/248 577/250 616/469
f 618/251 614/470 592/252
f 588/471 580/453 581/472
f 588/471 587/451 580/453
f 589/473 581/472 582/474
f 589/473 588/471 581/472
f 590/475 582/474 583/476
f 590/475 589/473 582/474
f 591/454 583/476 584/455
f 591/454 590/475 583/476
f 595/459 603/477 596/478
f 595/459 602/458 603/477
f 596/478 604/479 597/480
f 596/478 603/477 604/479
f 597/480 605/481 598/482
f 597/480 604/479 605/481
f 598/482 606/461 599/460
f 598/482 605/481 606/461
f 603/477 587/451 588/471
f 603/477 602/458 587/451
f 588/471 604/479 603/477
f 588/471 589/473 604/479
f 605/481 589/473 590/475
f 605/481 604/479 589/473
f 590/475 606/461 605/481
f 590/475 591/454 606/461
f 607/483 600/462 606/461
f 607/483 601/484 600/462
f 585/456 608/485 591/454
f 585/456 586/486 608/485
f 591/454 607/483 606/461
f 591/454 608/485 607/483
f 594/457 609/487 602/458
f 594/457 593/464 609/487
f 602/458 610/488 587/451
f 602/458 609/487 610/488
f 610/488 579/452 587/451
f 610/488 578/468 579/452
f 610/488 611/489 615/490
f 610/488 609/487 611/489
f 608/350 613/352 607/354
f 608/350 612/349 613/352
f 619/384 614/470 618/251
f 619/384 611/489 614/470
f 620/382 611/489 619/384
f 620/382 615/490 611/489
f 617/248 615/490 620/382
f 617/248 616/469 615/490
f 614/463 609/487 593/464
f 614/463 611/489 609/487
f 610/488 616/466 578/468
f 610/488 615/490 616/466
f 630/491 629/492 626/493
f 631/494 632/495 633/496
f 631/494 633/496 634/497
f 631/494 634/497 635/498
f 631/494 635/498 636/499
f 631/494 636/499 637/500
f 631/494 637/500 638/501
f 631/494 638/501 639/502
f 631/494 639/502 640/503
f 631/494 640/503 641/504
f 631/494 641/504 632/495
f 652/505 653/506 654/507
f 652/505 654/507 655/508
f 652/505 655/508 656/509
f 652/505 656/509 657/510
f 652/505 657/510 658/511
f 652/505 658/511 659/512
f 652/505 659/512 660/513
f 652/505 660/513 661/514
f 652/505 661/514 662/515
f 652/505 662/515 653/506
f 681/492 682/491 678/493
f 684/495 683/494 685/496
f 685/496 683/494 686/497
f 686/497 683/494 687/498
f 687/498 683/494 688/499
f 688/499 683/494 689/500
f 689/500 683/494 690/501
f 690/501 683/494 691/502
f 691/502 683/494 692/503
f 692/503 683/494 693/504
f 693/504 683/494 684/495
f 705/506 704/505 706/507
f 706/507 704/505 707/508
f 707/508 704/505 708/509
f 708/509 704/505 709/510
f 709/510 704/505 710/511
f 710/511 704/505 711/512
f 711/512 704/505 712/513
f 712/513 704/505 713/514
f 713/514 704/505 714/515
f 714/515 704/505 705/506
f 626/493 625/516 630/491
f 626/493 621/517 625/516
f 630/491 624/518 629/492
f 630/491 625/516 624/518
f 626/493 622/519 621/517
f 626/493 627/520 622/519
f 627/520 623/521 622/519
f 627/520 628/522 623/521
f 629/492 623/521 628/522
f 629/492 624/518 623/521
f 627/520 629/492 628/522
f 627/520 626/493 629/492
f 632/495 643/496 633/496
f 632/495 642/495 643/496
f 633/496 644/497 634/497
f 633/496 643/496 644/497
f 634/497 645/498 635/498
f 634/497 644/497 645/498
f 635/498 646/499 636/499
f 635/498 645/498 646/499
f 636/499 647/500 637/500
f 636/499 646/499 647/500
f 637/500 648/501 638/501
f 637/500 647/500 648/501
f 638/501 649/502 639/502
f 638/501 648/501 649/502
f 639/502 650/503 640/503
f 639/502 649/502 650/503
f 640/503 651/504 641/504
f 640/503 650/503 651/504
f 641/504 642/495 632/495
f 641/504 651/504 642/495
f 653/506 664/507 654/507
f 653/506 663/506 664/507
f 654/507 665/508 655/508
f 654/507 664/507 665/508
f 655/508 666/509 656/509
f 655/508 665/508 666/509
f 656/509 667/510 657/510
f 656/509 666/509 667/510
f 657/510 668/511 658/511
f 657/510 667/510 668/511
f 658/511 669/512 659/512
f 658/511 668/511 669/512
f 659/512 670/513 660/513
f 659/512 669/512 670/513
f 660/513 671/514 661/514
f 660/513 670/513 671/514
f 661/514 672/515 662/515
f 661/514 671/514 672/515
f 662/515 663/506 653/506
f 662/515 672/515 663/506
f 677/516 678/493 682/491
f 677/516 673/517 678/493
f 676/518 682/491 681/492
f 676/518 677/516 682/491
f 674/519 678/493 673/517
f 674/519 679/520 678/493
f 675/521 679/520 674/519
f 675/521 680/522 679/520
f 675/521 681/492 680/522
f 675/521 676/518 681/492
f 681/492 679/520 680/522
f 681/492 678/493 679/520
f 694/495 685/496 695/496
f 694/495 684/495 685/496
f 695/496 686/497 696/497
f 695/496 685/496 686/497
f 696/497 687/498 697/498
f 696/497 686/497 687/498
f 697/498 688/499 698/499
f 697/498 687/498 688/499
f 698/499 689/500 699/500
f 698/499 688/499 689/500
f 699/500 690/501 700/501
f 699/500 689/500 690/501
f 700/501 691/502 701/502
f 700/501 690/501 691/502
f 701/502 692/503 702/503
f 701/502 691/502 692/503
f 702/503 693/504 703/504
f 702/503 692/503 693/504
f 703/504 684/495 694/495
f 703/504 693/504 684/495
f 715/506 706/507 716/507
f 715/506 705/506 706/507
f 716/507 707/508 717/508
f 716/507 706/507 707/508
f 717/508 708/509 718/509
f 717/508 707/508 708/509
f 718/509 709/510 719/510
f 718/509 708/509 709/510
f 719/510 710/511 720/511
f 719/510 709/510 710/511
f 720/511 711/512 721/512
f 720/511 710/511 711/512
f 721/512 712/513 722/513
f 721/512 711/512 712/513
f 722/513 713/514 723/514
f 722/513 712/513 713/514
f 723/514 714/515 724/515
f 723/514 713/514 714/515
f 724/515 705/506 715/506
f 724/515 714/515 705/506
f 727/523 729/524 726/525
f 727/523 731/526 729/524
f 731/526 732/527 729/524
f 731/526 730/528 732/527
f 732/527 728/529 725/530
f 732/527 730/528 728/529
f 733/531 735/532 734/533
f 733/531 736/534 735/532
f 740/535 739/536 736/534
f 739/536 738/537 736/534
f 736/534 738/537 737/538
f 733/531 740/535 736/534
f 733/531 741/539 740/535
f 742/531 744/532 745/534
f 742/531 743/533 744/532
f 749/535 745/534 748/536
f 748/536 745/534 747/537
f 747/537 745/534 746/538
f 742/531 749/535 750/539
f 742/531 745/534 749/535
f 751/540 752/541 753/542
f 751/540 753/542 754/543
f 751/540 754/543 755/544
f 751/540 755/544 756/545
f 751/540 756/545 757/546
f 751/540 757/546 752/541
f 764/540 759/542 758/541
f 764/540 760/543 759/542
f 764/540 761/544 760/543
f 764/540 762/545 761/544
f 764/540 763/546 762/545
f 764/540 758/541 763/546
f 773/547 774/548 775/549
f 773/547 775/549 776/550
f 773/547 776/550 777/551
f 773/547 777/551 778/552
f 773/547 778/552 779/553
f 773/547 779/553 774/548
f 786/554 781/555 780/556
f 786/554 782/557 781/555
f 786/554 783/558 782/557
f 786/554 784/559 783/558
f 786/554 785/560 784/559
f 786/554 780/556 785/560
f 787/540 788/541 789/542
f 787/540 789/542 790/543
f 787/540 790/543 791/544
f 787/540 791/544 792/545
f 787/540 792/545 793/546
f 787/540 793/546 788/541
f 800/540 795/542 794/541
f 800/540 796/543 795/542
f 800/540 797/544 796/543
f 800/540 798/545 797/544
f 800/540 799/546 798/545
f 800/540 794/541 799/546
f 809/547 810/548 811/549
f 809/547 811/549 812/550
f 809/547 812/550 813/551
f 809/547 813/551 814/552
f 809/547 814/552 815/553
f 809/547 815/553 810/548
f 822/554 817/555 816/556
f 822/554 818/557 817/555
f 822/554 819/558 818/557
f 822/554 820/559 819/558
f 822/554 821/560 820/559
f 822/554 816/556 821/560
f 823/540 824/541 825/542
f 823/540 825/542 826/543
f 823/540 826/543 827/544
f 823/540 827/544 828/545
f 823/540 828/545 829/546
f 823/540 829/546 824/541
f 836/540 831/542 830/541
f 836/540 832/543 831/542
f 836/540 833/544 832/543
f 836/540 834/545 833/544
f 836/540 835/546 834/545
f 836/540 830/541 835/546
f 845/547 846/548 847/549
f 845/547 847/549 848/550
f 845/547 848/550 849/551
f 845/547 849/551 850/552
f 845/547 850/552 851/553
f 845/547 851/553 846/548
f 858/554 853/555 852/556
f 858/554 854/557 853/555
f 858/554 855/558 854/557
f 858/554 856/559 855/558
f 858/554 857/560 856/559
f 858/554 852/556 857/560
f 859/547 861/549 860/548
f 859/547 862/550 861/549
f 859/547 863/551 862/550
f 859/547 864/552 863/551
f 859/547 865/553 864/552
f 859/547 860/548 865/553
f 872/554 866/556 867/555
f 872/554 867/555 868/557
f 872/554 868/557 869/558
f 872/554 869/558 870/559
f 872/554 870/559 871/560
f 872/554 871/560 866/556
f 873/547 875/549 874/548
f 873/547 876/550 875/549
f 873/547 877/551 876/550
f 873/547 878/552 877/551
f 873/547 879/553 878/552
f 873/547 874/548 879/553
f 886/554 880/556 881/555
f 886/554 881/555 882/557
f 886/554 882/557 883/558
f 886/554 883/558 884/559
f 886/554 884/559 885/560
f 886/554 885/560 880/556
f 887/547 889/549 888/548
f 887/547 890/550 889/549
f 887/547 891/551 890/550
f 887/547 892/552 891/551
f 887/547 893/553 892/552
f 887/547 888/548 893/553
f 900/554 894/556 895/555
f 900/554 895/555 896/557
f 900/554 896/557 897/558
f 900/554 897/558 898/559
f 900/554 898/559 899/560
f 900/554 899/560 894/556
f 902/541 901/540 903/542
f 903/542 901/540 904/543
f 904/543 901/540 905/544
f 905/544 901/540 906/545
f 906/545 901/540 907/546
f 907/546 901/540 902/541
f 909/542 914/540 908/541
f 910/543 914/540 909/542
f 911/544 914/540 910/543
f 912/545 914/540 911/544
f 913/546 914/540 912/545
f 908/541 914/540 913/546
f 924/548 923/547 925/549
f 925/549 923/547 926/550
f 926/550 923/547 927/551
f 927/551 923/547 928/552
f 928/552 923/547 929/553
f 929/553 923/547 924/548
f 931/555 936/554 930/556
f 932/557 936/554 931/555
f 933/558 936/554 932/557
f 934/559 936/554 933/558
f 935/560 936/554 934/559
f 930/556 936/554 935/560
f 938/541 937/540 939/542
f 939/542 937/540 940/543
f 940/543 937/540 941/544
f 941/544 937/540 942/545
f 942/545 937/540 943/546
f 943/546 937/540 938/541
f 945/542 950/540 944/541
f 946/543 950/540 945/542
f 947/544 950/540 946/543
f 948/545 950/540 947/544
f 949/546 950/540 948/545
f 944/541 950/540 949/546
f 960/548 959/547 961/549
f 961/549 959/547 962/550
f 962/550 959/547 963/551
f 963/551 959/547 964/552
f 964/552 959/547 965/553
f 965/553 959/547 960/548
f 967/555 972/554 966/556
f 968/557 972/554 967/555
f 969/558 972/554 968/557
f 970/559 972/554 969/558
f 971/560 972/554 970/559
f 966/556 972/554 971/560
f 974/541 973/540 975/542
f 975/542 973/540 976/543
f 976/543 973/540 977/544
f 977/544 973/540 978/545
f 978/545 973/540 979/546
f 979/546 973/540 974/541
f 981/542 986/540 980/541
f 982/543 986/540 981/542
f 983/544 986/540 982/543
f 984/545 986/540 983/544
f 985/546 986/540 984/545
f 980/541 986/540 985/546
f 996/548 995/547 997/549
f 997/549 995/547 998/550
f 998/550 995/547 999/551
f 999/551 995/547 1000/552
f 1000/552 995/547 1001/553
f 1001/553 995/547 996/548
f 1003/555 1008/554 1002/556
f 1004/557 1008/554 1003/555
f 1005/558 1008/554 1004/557
f 1006/559 1008/554 1005/558
f 1007/560 1008/554 1006/559
f 1002/556 1008/554 1007/560
f 1011/549 1009/547 1010/548
f 1012/550 1009/547 1011/549
f 1013/551 1009/547 1012/550
f 1014/552 1009/547 1013/551
f 1015/553 1009/547 1014/552
f 1010/548 1009/547 1015/553
f 1016/556 1022/554 1017/555
f 1017/555 1022/554 1018/557
f 1018/557 1022/554 1019/558
f 1019/558 1022/554 1020/559
f 1020/559 1022/554 1021/560
f 1021/560 1022/554 1016/556
f 1025/549 1023/547 1024/548
f 1026/550 1023/547 1025/549
f 1027/551 1023/547 1026/550
f 1028/552 1023/547 1027/551
f 1029/553 1023/547 1028/552
f 1024/548 1023/547 1029/553
f 1030/556 1036/554 1031/555
f 1031/555 1036/554 1032/557
f 1032/557 1036/554 1033/558
f 1033/558 1036/554 1034/559
f 1034/559 1036/554 1035/560
f 1035/560 1036/554 1030/556
f 1039/549 1037/547 1038/548
f 1040/550 1037/547 1039/549
f 1041/551 1037/547 1040/550
f 1042/552 1037/547 1041/551
f 1043/553 1037/547 1042/552
f 1038/548 1037/547 1043/553
f 1044/556 1050/554 1045/555
f 1045/555 1050/554 1046/557
f 1046/557 1050/554 1047/558
f 1047/558 1050/554 1048/559
f 1048/559 1050/554 1049/560
f 1049/560 1050/554 1044/556
f 753/542 758/541 759/542
f 753/542 752/541 758/541
f 753/542 760/543 754/543
f 753/542 759/542 760/543
f 754/543 761/544 755/544
f 754/543 760/543 761/544
f 755/544 762/545 756/545
f 755/544 761/544 762/545
f 756/545 763/546 757/546
f 756/545 762/545 763/546
f 757/546 758/541 752/541
f 757/546 763/546 758/541
f 765/561 768/562 767/563
f 765/561 766/564 768/562
f 767/563 770/565 769/566
f 767/563 768/562 770/565
f 769/566 772/567 771/568
f 769/566 770/565 772/567
f 771/568 766/564 765/561
f 771/568 772/567 766/564
f 771/568 767/563 769/566
f 771/568 765/561 767/563
f 766/564 770/565 768/562
f 766/564 772/567 770/565
f 774/548 781/555 775/549
f 774/548 780/556 781/555
f 775/549 782/557 776/550
f 775/549 781/555 782/557
f 777/551 782/557 783/558
f 777/551 776/550 782/557
f 777/551 784/559 778/552
f 777/551 783/558 784/559
f 778/552 785/560 779/553
f 778/552 784/559 785/560
f 779/553 780/556 774/548
f 779/553 785/560 780/556
f 789/542 794/541 795/542
f 789/542 788/541 794/541
f 789/542 796/543 790/543
f 789/542 795/542 796/543
f 790/543 797/544 791/544
f 790/543 796/543 797/544
f 791/544 798/545 792/545
f 791/544 797/544 798/545
f 792/545 799/546 793/546
f 792/545 798/545 799/546
f 793/546 794/541 788/541
f 793/546 799/546 794/541
f 801/561 804/562 803/563
f 801/561 802/564 804/562
f 803/563 806/565 805/566
f 803/563 804/562 806/565
f 805/566 808/567 807/568
f 805/566 806/565 808/567
f 807/568 802/564 801/561
f 807/568 808/567 802/564
f 807/568 803/563 805/566
f 807/568 801/561 803/563
f 802/564 806/565 804/562
f 802/564 808/567 806/565
f 810/548 817/555 811/549
f 810/548 816/556 817/555
f 811/549 818/557 812/550
f 811/549 817/555 818/557
f 813/551 818/557 819/558
f 813/551 812/550 818/557
f 813/551 820/559 814/552
f 813/551 819/558 820/559
f 814/552 821/560 815/553
f 814/552 820/559 821/560
f 815/553 816/556 810/548
f 815/553 821/560 816/556
f 825/542 830/541 831/542
f 825/542 824/541 830/541
f 825/542 832/543 826/543
f 825/542 831/542 832/543
f 826/543 833/544 827/544
f 826/543 832/543 833/544
f 827/544 834/545 828/545
f 827/544 833/544 834/545
f 828/545 835/546 829/546
f 828/545 834/545 835/546
f 829/546 830/541 824/541
f 829/546 835/546 830/541
f 837/561 840/562 839/563
f 837/561 838/564 840/562
f 839/563 842/565 841/566
f 839/563 840/562 842/565
f 841/566 844/567 843/568
f 841/566 842/565 844/567
f 843/568 838/564 837/561
f 843/568 844/567 838/564
f 841/566 837/561 839/563
f 841/566 843/568 837/561
f 838/564 842/565 840/562
f 838/564 844/567 842/565
f 846/548 853/555 847/549
f 846/548 852/556 853/555
f 847/549 854/557 848/550
f 847/549 853/555 854/557
f 849/551 854/557 855/558
f 849/551 848/550 854/557
f 849/551 856/559 850/552
f 849/551 855/558 856/559
f 850/552 857/560 851/553
f 850/552 856/559 857/560
f 851/553 852/556 846/548
f 851/553 857/560 852/556
f 860/548 867/555 866/556
f 860/548 861/549 867/555
f 861/549 868/557 867/555
f 861/549 862/550 868/557
f 862/550 869/558 868/557
f 862/550 863/551 869/558
f 863/551 870/559 869/558
f 863/551 864/552 870/559
f 864/552 871/560 870/559
f 864/552 865/553 871/560
f 865/553 866/556 871/560
f 865/553 860/548 866/556
f 874/548 881/555 880/556
f 874/548 875/549 881/555
f 875/549 882/557 881/555
f 875/549 876/550 882/557
f 876/550 883/558 882/557
f 876/550 877/551 883/558
f 877/551 884/559 883/558
f 877/551 878/552 884/559
f 878/552 885/560 884/559
f 878/552 879/553 885/560
f 879/553 880/556 885/560
f 879/553 874/548 880/556
f 888/548 895/555 894/556
f 888/548 889/549 895/555
f 889/549 896/557 895/555
f 889/549 890/550 896/557
f 890/550 897/558 896/557
f 890/550 891/551 897/558
f 891/551 898/559 897/558
f 891/551 892/552 898/559
f 892/552 899/560 898/559
f 892/552 893/553 899/560
f 893/553 894/556 899/560
f 893/553 888/548 894/556
f 908/541 903/542 909/542
f 908/541 902/541 903/542
f 909/542 904/543 910/543
f 909/542 903/542 904/543
f 911/544 904/543 905/544
f 911/544 910/543 904/543
f 911/544 906/545 912/545
f 911/544 905/544 906/545
f 912/545 907/546 913/546
f 912/545 906/545 907/546
f 913/546 902/541 908/541
f 913/546 907/546 902/541
f 916/564 917/563 918/562
f 916/564 915/561 917/563
f 918/562 919/566 920/565
f 918/562 917/563 919/566
f 920/565 921/568 922/567
f 920/565 919/566 921/568
f 922/567 915/561 916/564
f 922/567 921/568 915/561
f 915/561 919/566 917/563
f 915/561 921/568 919/566
f 922/567 918/562 920/565
f 922/567 916/564 918/562
f 931/555 924/548 925/549
f 931/555 930/556 924/548
f 931/555 926/550 932/557
f 931/555 925/549 926/550
f 932/557 927/551 933/558
f 932/557 926/550 927/551
f 933/558 928/552 934/559
f 933/558 927/551 928/552
f 934/559 929/553 935/560
f 934/559 928/552 929/553
f 935/560 924/548 930/556
f 935/560 929/553 924/548
f 944/541 939/542 945/542
f 944/541 938/541 939/542
f 945/542 940/543 946/543
f 945/542 939/542 940/543
f 947/544 940/543 941/544
f 947/544 946/543 940/543
f 947/544 942/545 948/545
f 947/544 941/544 942/545
f 948/545 943/546 949/546
f 948/545 942/545 943/546
f 949/546 938/541 944/541
f 949/546 943/546 938/541
f 952/564 953/563 954/562
f 952/564 951/561 953/563
f 954/562 955/566 956/565
f 954/562 953/563 955/566
f 956/565 957/568 958/567
f 956/565 955/566 957/568
f 958/567 951/561 952/564
f 958/567 957/568 951/561
f 951/561 955/566 953/563
f 951/561 957/568 955/566
f 958/567 954/562 956/565
f 958/567 952/564 954/562
f 967/555 960/548 961/549
f 967/555 966/556 960/548
f 967/555 962/550 968/557
f 967/555 961/549 962/550
f 968/557 963/551 969/558
f 968/557 962/550 963/551
f 969/558 964/552 970/559
f 969/558 963/551 964/552
f 970/559 965/553 971/560
f 970/559 964/552 965/553
f 971/560 960/548 966/556
f 971/560 965/553 960/548
f 980/541 975/542 981/542
f 980/541 974/541 975/542
f 981/542 976/543 982/543
f 981/542 975/542 976/543
f 983/544 976/543 977/544
f 983/544 982/543 976/543
f 983/544 978/545 984/545
f 983/544 977/544 978/545
f 984/545 979/546 985/546
f 984/545 978/545 979/546
f 985/546 974/541 980/541
f 985/546 979/546 974/541
f 988/564 989/563 990/562
f 988/564 987/561 989/563
f 990/562 991/566 992/565
f 990/562 989/563 991/566
f 992/565 993/568 994/567
f 992/565 991/566 993/568
f 994/567 987/561 988/564
f 994/567 993/568 987/561
f 987/561 991/566 989/563
f 987/561 993/568 991/566
f 992/565 988/564 990/562
f 992/565 994/567 988/564
f 1003/555 996/548 997/549
f 1003/555 1002/556 996/548
f 1003/555 998/550 1004/557
f 1003/555 997/549 998/550
f 1004/557 999/551 1005/558
f 1004/557 998/550 999/551
f 1005/558 1000/552 1006/559
f 1005/558 999/551 1000/552
f 1006/559 1001/553 1007/560
f 1006/559 1000/552 1001/553
f 1007/560 996/548 1002/556
f 1007/560 1001/553 996/548
f 1011/549 1016/556 1017/555
f 1011/549 1010/548 1016/556
f 1012/550 1017/555 1018/557
f 1012/550 1011/549 1017/555
f 1013/551 1018/557 1019/558
f 1013/551 1012/550 1018/557
f 1014/552 1019/558 1020/559
f 1014/552 1013/551 1019/558
f 1015/553 1020/559 1021/560
f 1015/553 1014/552 1020/559
f 1010/548 1021/560 1016/556
f 1010/548 1015/553 1021/560
f 1025/549 1030/556 1031/555
f 1025/549 1024/548 1030/556
f 1026/550 1031/555 1032/557
f 1026/550 1025/549 1031/555
f 1027/551 1032/557 1033/558
f 1027/551 1026/550 1032/557
f 1028/552 1033/558 1034/559
f 1028/552 1027/551 1033/558
f 1029/553 1034/559 1035/560
f 1029/553 1028/552 1034/559
f 1024/548 1035/560 1030/556
f 1024/548 1029/553 1035/560
f 1039/549 1044/556 1045/555
f 1039/549 1038/548 1044/556
f 1040/550 1045/555 1046/557
f 1040/550 1039/549 1045/555
f 1041/551 1046/557 1047/558
f 1041/551 1040/550 1046/557
f 1042/552 1047/558 1048/559
f 1042/552 1041/551 1047/558
f 1043/553 1048/559 1049/560
f 1043/553 1042/552 1048/559
f 1038/548 1049/560 1044/556
f 1038/548 1043/553 1049/560
